<?xml version="1.0" standalone="no"?>
<!DOCTYPE svg PUBLIC "-//W3C//DTD SVG 1.1//EN" "http://www.w3.org/Graphics/SVG/1.1/DTD/svg11.dtd" >
<svg xmlns="http://www.w3.org/2000/svg" xmlns:xlink="http://www.w3.org/1999/xlink" version="1.1">
<metadata>
Created by FontForge 20161003 at Thu Jul 12 09:18:51 2018
 By www-data
(c) Copyright 2005 by Tong Duc Thinh. All Rights Reserved
</metadata>
<defs>
<font id="SFUSwissBTUltraCompressed" horiz-adv-x="278" >
  <font-face 
    font-family="SFUSwissBTUltraCompressed"
    font-weight="800"
    font-stretch="normal"
    units-per-em="1000"
    panose-1="0 0 8 0 0 0 0 0 0 0"
    ascent="800"
    descent="-200"
    x-height="576"
    cap-height="720"
    bbox="-154 -236 1000 1141"
    underline-thickness="59"
    underline-position="-164"
    unicode-range="U+0020-F002"
  />
<missing-glyph horiz-adv-x="500" 
d="M63 0v772h375v-772h-375zM125 63h250v647h-250v-647z" />
    <glyph glyph-name=".notdef" horiz-adv-x="500" 
d="M63 0v772h375v-772h-375zM125 63h250v647h-250v-647z" />
    <glyph glyph-name=".null" horiz-adv-x="0" 
 />
    <glyph glyph-name="nonmarkingreturn" horiz-adv-x="164" 
 />
    <glyph glyph-name="space" unicode=" " horiz-adv-x="164" 
 />
    <glyph glyph-name="exclam" unicode="!" horiz-adv-x="176" 
d="M37 0v116h102v-116h-102zM37 157v563h102v-563h-102z" />
    <glyph glyph-name="quotedbl" unicode="&#x22;" horiz-adv-x="314" 
d="M42 701h80v-272h-80v272zM193 701h80v-272h-80v272z" />
    <glyph glyph-name="numbersign" unicode="#" horiz-adv-x="769" 
d="M359 713h93l-75 -213h122l76 213h93l-75 -213h142l-29 -84h-143l-44 -123h151l-30 -84h-150l-76 -212h-93l76 212h-123l-77 -212h-93l76 212h-146l30 84h145l44 123h-154l30 84h154zM346 416l-44 -124h125l44 124h-125z" />
    <glyph glyph-name="dollar" unicode="$" horiz-adv-x="329" 
d="M192 -102h-45v103q-75 11 -99 54q-19 33 -19 120v109h106v-140q0 -31 5 -42q7 -14 27 -14t27 15q5 11 5 45v30q0 46 -23 78l-76 106q-41 56 -51 81q-20 46 -20 115q0 74 27.5 111.5t90.5 47.5v82h45v-82q74 -11 99 -53q19 -34 19 -120v-109h-105v139q0 56 -33 56
q-21 0 -28 -17q-4 -12 -4 -51v-9q0 -56 24 -90l63 -89q52 -73 58 -85q25 -50 25 -120q0 -79 -24 -116q-27 -40 -94 -52v-103z" />
    <glyph glyph-name="percent" unicode="%" horiz-adv-x="551" 
d="M24 610q0 64 24.5 94.5t81.5 30.5t83 -32q23 -29 23 -93v-149q0 -64 -23 -93q-26 -32 -83 -32t-83 32q-23 29 -23 93v149zM154 435v201q0 34 -24 34t-24 -34v-201q0 -34 24 -34t24 34zM369 735h53l-242 -751h-52zM316 258q0 64 24 94t81 30q58 0 82 -30t24 -94v-149
q0 -64 -23 -93q-26 -32 -83 -32t-82 32q-23 29 -23 93v149zM444 82v202q0 33 -24 33t-24 -33v-202q0 -34 24 -34t24 34z" />
    <glyph glyph-name="ampersand" unicode="&#x26;" horiz-adv-x="359" 
d="M19 164v120q0 44 12 71.5t45 56.5q-37 66 -37 120v74q0 51 36 82.5t96 31.5t93 -31t33 -83v-73q0 -43 -26 -77q-23 -29 -82 -72l29 -82q18 -50 27 -90v169h96v-238q0 -33 -12 -60h35v-83h-69q-24 0 -32 13q-43 -22 -85 -22q-159 0 -159 173zM209 82q-62 132 -84 214v-134
q0 -87 50 -87q12 0 34 7zM154 466q46 34 46 64v73q0 45 -29 45q-31 0 -31 -50v-65q0 -25 14 -67z" />
    <glyph glyph-name="quotesingle" unicode="'" horiz-adv-x="163" 
d="M42 701h80v-272h-80v272z" />
    <glyph glyph-name="parenleft" unicode="(" horiz-adv-x="256" 
d="M245 -86h-89q-91 174 -91 403t91 403h88q-89 -184 -89 -403q0 -215 90 -403z" />
    <glyph glyph-name="parenright" unicode=")" horiz-adv-x="256" 
d="M12 -86q90 188 90 403q0 217 -90 403h89q90 -172 90 -403q0 -229 -91 -403h-88z" />
    <glyph glyph-name="asterisk" unicode="*" horiz-adv-x="343" 
d="M80 531l45 60l-69 22l19 56l68 -22l-1 73h59l-1 -73l68 22l18 -56l-69 -22l42 -58l-47 -35l-42 58l-41 -59z" />
    <glyph glyph-name="plus" unicode="+" horiz-adv-x="833" 
d="M375 596h83v-257h251v-81h-251v-258h-83v258h-251v81h251v257z" />
    <glyph glyph-name="comma" unicode="," horiz-adv-x="164" 
d="M14 -129l34 238h100l-73 -238h-61z" />
    <glyph glyph-name="hyphen" unicode="-" horiz-adv-x="176" 
d="M24 250v76h127v-76h-127z" />
    <glyph glyph-name="hyphen" unicode="&#x2010;" horiz-adv-x="176" 
d="M24 250v76h127v-76h-127z" />
    <glyph glyph-name="period" unicode="." horiz-adv-x="164" 
d="M34 0v114h97v-114h-97z" />
    <glyph glyph-name="slash" unicode="/" 
d="M23 -93h-68l277 828h70z" />
    <glyph glyph-name="zero" unicode="0" horiz-adv-x="329" 
d="M25 597q0 138 139 138t139 -138v-475q0 -138 -139 -138t-139 138v475zM133 606v-488q0 -44 31 -44q32 0 32 44v488q0 43 -32 43q-31 0 -31 -43z" />
    <glyph glyph-name="one" unicode="1" horiz-adv-x="329" 
d="M114 0v547h-78v79q98 6 98 92v2h88v-720h-108z" />
    <glyph glyph-name="two" unicode="2" horiz-adv-x="329" 
d="M144 87h157v-87h-279q-1 14 -1 39q0 114 70 250q35 63 70 125q35 69 35 132v61q0 39 -32 39q-30 0 -30 -39v-137h-108v127q0 138 143 138q135 0 135 -122v-87q0 -59 -27 -121q-5 -12 -55 -104q-76 -140 -78 -214z" />
    <glyph glyph-name="three" unicode="3" horiz-adv-x="329" 
d="M25 262h108v-144q0 -44 31 -44q30 0 30 44v138q0 33 -9 45q-12 15 -45 15h-7v82h9q52 0 52 64v144v13l-1 6q0 24 -29 24q-31 0 -31 -43v-148h-108v139q0 138 139 138q137 0 137 -138v-125q0 -102 -82 -113q49 -7 65.5 -27.5t16.5 -69.5v-140q0 -138 -137 -138
q-139 0 -139 138v140z" />
    <glyph glyph-name="four" unicode="4" horiz-adv-x="329" 
d="M93 267h87l6 261q0 11 8 99h-10q-6 -33 -19 -93zM176 0v179h-175v81l135 460h147v-453h45v-88h-45v-179h-107z" />
    <glyph glyph-name="five" unicode="5" horiz-adv-x="329" 
d="M305 122q0 -138 -139 -138q-136 0 -136 138v142h105v-146q0 -44 31 -44q32 0 32 44v201q0 39 -27 39q-17 0 -28 -21h-109v383h275v-88h-167v-218q36 39 81 39q52 0 69 -34q13 -25 13 -89v-208z" />
    <glyph glyph-name="six" unicode="6" horiz-adv-x="329" 
d="M135 299v-181q0 -44 32 -44q31 0 31 44v181q0 44 -31 44q-32 0 -32 -44zM28 122v475q0 138 139 138t139 -138v-138h-108v147q0 43 -31 43q-32 0 -32 -43v-205q36 36 80 36q40 0 65.5 -28.5t25.5 -77.5v-209q0 -138 -139 -138t-139 138z" />
    <glyph glyph-name="seven" unicode="7" horiz-adv-x="329" 
d="M34 0l162 632h-187v88h294v-90l-153 -630h-116z" />
    <glyph glyph-name="eight" unicode="8" horiz-adv-x="329" 
d="M133 281v-163q0 -44 31 -44q32 0 32 44v163q0 44 -32 44q-31 0 -31 -44zM25 597q0 138 139 138t139 -138v-107q0 -92 -87 -116q87 -16 87 -111v-141q0 -138 -139 -138t-139 138v139q0 48 17 73t63 40q-48 12 -64 36t-16 77v110zM196 468v138q0 43 -32 43q-31 0 -31 -43
v-138q0 -44 31 -44q32 0 32 44z" />
    <glyph glyph-name="nine" unicode="9" horiz-adv-x="329" 
d="M196 384v217q0 43 -32 43q-31 0 -31 -43v-217q0 -43 31 -43q32 0 32 43zM25 219h108v-101q0 -44 31 -44q32 0 32 44v160q-36 -36 -80 -36q-41 0 -66 28t-25 77v250q0 138 139 138t139 -138v-475q0 -138 -139 -138t-139 138v97z" />
    <glyph glyph-name="colon" unicode=":" horiz-adv-x="164" 
d="M34 0v114h97v-114h-97zM34 457v114h97v-114h-97z" />
    <glyph glyph-name="semicolon" unicode=";" horiz-adv-x="164" 
d="M34 457v114h97v-114h-97zM6 -129l34 238h101l-74 -238h-61z" />
    <glyph glyph-name="less" unicode="&#x3c;" horiz-adv-x="833" 
d="M704 574v-90l-456 -186l456 -186v-89l-575 236v78z" />
    <glyph glyph-name="equal" unicode="=" horiz-adv-x="833" 
d="M124 440h585v-82h-585v82zM124 238h585v-81h-585v81z" />
    <glyph glyph-name="greater" unicode="&#x3e;" horiz-adv-x="833" 
d="M129 574l575 -237v-78l-575 -236v89l456 186l-456 186v90z" />
    <glyph glyph-name="question" unicode="?" horiz-adv-x="261" 
d="M79 116h97v-116h-97v116zM154 534v99q0 33 -22 33t-22 -33v-176h-98v166q0 112 119 112q120 0 120 -112v-90q0 -56 -29 -114q-16 -32 -31 -64t-15 -69v-129h-97v143q0 45 11 76q6 17 28 56q36 64 36 102z" />
    <glyph glyph-name="at" unicode="@" horiz-adv-x="1000" 
d="M602 345q-14 86 -90 86q-62 0 -106 -62.5t-44 -151.5q0 -100 85 -100q43 0 79 32t49 85zM573 138q-52 -82 -148 -82q-153 0 -153 164q0 115 69 195q67 77 161 77q84 0 121 -69l27 52h75l-72 -286q-4 -16 -4 -24q0 -41 47 -41q52 0 104 56q72 77 72 192q0 123 -90.5 200.5
t-239.5 77.5q-175 0 -293 -108q-121 -112 -121 -288q0 -152 102.5 -243.5t272.5 -91.5q167 0 300 93l33 -48q-147 -111 -329 -111q-188 0 -309 93q-150 115 -150 309q0 163 100 286q145 178 397 178q169 0 278 -84q129 -100 129 -262q0 -165 -122 -263q-68 -55 -155 -55
q-102 0 -102 81v2z" />
    <glyph glyph-name="A" unicode="A" horiz-adv-x="328" 
d="M138 287h50l-11 179q-4 64 -11 146h-5q-2 -37 -10 -147zM0 0l86 720h163l78 -720h-109l-22 194h-67l-23 -194h-106z" />
    <glyph glyph-name="B" unicode="B" horiz-adv-x="319" 
d="M28 720h127q80 0 115.5 -31t35.5 -101v-95q0 -90 -106 -111v-4q106 -9 106 -99v-147q0 -70 -36 -101t-115 -31h-127v720zM198 472v118q0 47 -40 47h-23v-212h23q40 0 40 47zM135 337v-249h23q40 0 40 47v156q0 46 -40 46h-23z" />
    <glyph glyph-name="C" unicode="C" horiz-adv-x="312" 
d="M193 606q0 43 -31 43t-31 -43v-488q0 -44 31 -44t31 44v162h108v-158q0 -138 -139 -138t-139 138v475q0 138 139 138t139 -138v-143h-108v152z" />
    <glyph glyph-name="D" unicode="D" horiz-adv-x="329" 
d="M28 720h127q79 0 115 -31t36 -101v-456q0 -70 -36 -101t-115 -31h-127v720zM135 637v-549h23q40 0 40 47v455q0 47 -40 47h-23z" />
    <glyph glyph-name="E" unicode="E" horiz-adv-x="273" 
d="M28 0v720h237v-98h-130v-181h127v-95h-127v-247h130v-99h-237z" />
    <glyph glyph-name="F" unicode="F" horiz-adv-x="262" 
d="M28 0v720h237v-98h-130v-181h127v-95h-127v-346h-107z" />
    <glyph glyph-name="G" unicode="G" horiz-adv-x="324" 
d="M196 606q0 43 -32 43q-31 0 -31 -43v-488q0 -44 31 -44q32 0 32 44v158h-46v89h153v-365h-56l-6 44h-3q-33 -62 -100 -62q-113 0 -113 143v472q0 138 139 138t139 -138v-143h-107v152z" />
    <glyph glyph-name="H" unicode="H" horiz-adv-x="331" 
d="M28 0v720h107v-274h61v274h107v-720h-107v346h-61v-346h-107z" />
    <glyph glyph-name="I" unicode="I" horiz-adv-x="163" 
d="M135 0h-107v720h107v-720z" />
    <glyph glyph-name="J" unicode="J" horiz-adv-x="316" 
d="M289 720v-598q0 -138 -139 -138q-73 0 -106 35t-33 110v151h108v-162q0 -44 31 -44t31 44v602h108z" />
    <glyph glyph-name="K" unicode="K" horiz-adv-x="315" 
d="M28 0v720h107v-319h4l83 319h106l-90 -329l88 -391h-113l-74 363h-4v-363h-107z" />
    <glyph glyph-name="L" unicode="L" horiz-adv-x="257" 
d="M28 0v720h107v-621h130v-99h-237z" />
    <glyph glyph-name="M" unicode="M" horiz-adv-x="468" 
d="M28 0v720h162l31 -275q0 3 5 -73q5 -86 7 -182h6q3 127 16 252l29 278h157v-720h-98l2 385q0 56 5 216h-6q-6 -115 -14 -185l-48 -416h-102q-48 410 -59 601h-6l5 -199v-402h-92z" />
    <glyph glyph-name="N" unicode="N" horiz-adv-x="384" 
d="M28 0v720h163l40 -295q20 -146 37 -335h6l-4 248l-3 382h89v-720h-159l-52 398q-22 169 -29 236h-7l3 -181l3 -453h-87z" />
    <glyph glyph-name="O" unicode="O" horiz-adv-x="329" 
d="M25 597q0 138 139 138t139 -138v-475q0 -138 -139 -138t-139 138v475zM133 606v-488q0 -44 31 -44q32 0 32 44v488q0 43 -32 43q-31 0 -31 -43z" />
    <glyph glyph-name="P" unicode="P" horiz-adv-x="314" 
d="M198 413v177q0 47 -40 47h-23v-271h23q40 0 40 47zM28 0v720h127q79 0 115 -31t36 -99v-177q0 -70 -36 -101t-115 -31h-20v-281h-107z" />
    <glyph glyph-name="Q" unicode="Q" horiz-adv-x="329" 
d="M25 597q0 138 139 138t139 -138v-475q0 -85 -54 -116l1 -6q1 -2 22 -2h38v-85h-62q-48 0 -53 72q-15 -1 -31 -1q-139 0 -139 138v475zM133 606v-488q0 -44 31 -44q32 0 32 44v488q0 43 -32 43q-31 0 -31 -43z" />
    <glyph glyph-name="R" unicode="R" horiz-adv-x="323" 
d="M28 720h127q80 0 115.5 -31t35.5 -101v-84q0 -56 -25 -84.5t-81 -37.5v-4q106 -1 106 -99v-147q0 -94 19 -132h-113q-14 33 -14 102v189q0 45 -59 45h-4v-336h-107v720zM198 472v118q0 47 -40 47h-23v-212h23q40 0 40 47z" />
    <glyph glyph-name="S" unicode="S" horiz-adv-x="305" 
d="M15 597q0 138 138 138q139 0 139 -138v-143h-107v152q0 43 -32 43q-31 0 -31 -43v-52q0 -50 14 -69l117 -160q39 -53 39 -108v-95q0 -138 -139 -138q-138 0 -138 138v158h107v-162q0 -44 31 -44q32 0 32 44v75q0 30 -18 55l-122 170q-30 42 -30 101v78z" />
    <glyph glyph-name="T" unicode="T" horiz-adv-x="289" 
d="M198 0h-107v627h-93v93h293v-93h-93v-627z" />
    <glyph glyph-name="U" unicode="U" horiz-adv-x="329" 
d="M25 122v598h108v-602q0 -44 31 -44q32 0 32 44v602h107v-598q0 -138 -139 -138t-139 138z" />
    <glyph glyph-name="V" unicode="V" horiz-adv-x="323" 
d="M84 0l-84 720h108l37 -343q8 -68 16 -243h5q6 174 21 299l35 287h104l-87 -720h-155z" />
    <glyph glyph-name="W" unicode="W" horiz-adv-x="444" 
d="M54 0q-3 107 -19 277l-42 443h106l20 -255q7 -89 12 -276h7q7 215 11 258l26 273h116l22 -289q5 -62 6 -242h7q6 191 15 276l26 255h85l-70 -720h-118l-32 433q-3 41 -3 92v29h-5q-11 -186 -42 -554h-128z" />
    <glyph glyph-name="X" unicode="X" horiz-adv-x="309" 
d="M-12 0l93 362l-86 358h114l22 -105q9 -38 25 -177h4q12 112 31 182l27 100h100l-86 -324l88 -396h-113l-38 179q-10 49 -15 129h-5q-3 -56 -18 -126l-40 -182h-103z" />
    <glyph glyph-name="Y" unicode="Y" horiz-adv-x="290" 
d="M90 0v270l-106 450h106l39 -158q15 -61 18 -156h4q5 82 21 153l37 161h101l-110 -450v-270h-110z" />
    <glyph glyph-name="Z" unicode="Z" horiz-adv-x="239" 
d="M1 0v84l126 543h-123v93h238v-85l-125 -542h125v-93h-241z" />
    <glyph glyph-name="bracketleft" unicode="[" horiz-adv-x="252" 
d="M155 -13h83v-73h-176v806h176v-76h-83v-657z" />
    <glyph glyph-name="backslash" unicode="\" 
d="M256 -93l-279 828h70l277 -828h-68z" />
    <glyph glyph-name="bracketright" unicode="]" horiz-adv-x="252" 
d="M95 644h-83v76h176v-806h-176v73h83v657z" />
    <glyph glyph-name="asciicircum" unicode="^" horiz-adv-x="1000" 
d="M447 713h106l242 -274h-101l-194 194l-195 -194h-101z" />
    <glyph glyph-name="underscore" unicode="_" horiz-adv-x="500" 
d="M0 -152h500v-84h-500v84z" />
    <glyph glyph-name="grave" unicode="`" horiz-adv-x="500" 
d="M233 611l-68 109h91l35 -109h-58z" />
    <glyph glyph-name="a" unicode="a" horiz-adv-x="276" 
d="M259 0h-95q-3 14 -3 32v12h-2q-26 -51 -72 -51q-43 0 -58 32q-9 20 -9 69v123q0 45 10 68q13 27 49 50q53 33 58 38q22 20 22 56v55q0 32 -22 32q-21 0 -21 -32v-117h-96v107q0 112 117 112q118 0 118 -112v-408q0 -35 4 -66zM115 220v-114q0 -32 22 -32t22 32v193
q-26 -17 -35 -33t-9 -46z" />
    <glyph glyph-name="b" unicode="b" 
d="M22 0v720h96v-185h2q21 48 68 48q40 0 56 -27q13 -23 13 -78v-384q0 -53 -13 -75q-15 -26 -55 -26q-50 0 -71 51h-2v-44h-94zM118 106q0 -32 22 -32t22 32v364q0 33 -22 33t-22 -33v-364z" />
    <glyph glyph-name="c" unicode="c" 
d="M258 102q0 -111 -119 -111t-119 111v372q0 112 119 112t119 -112v-107h-97v117q0 32 -22 32t-22 -32v-391q0 -33 22 -33t22 33v135h97v-126z" />
    <glyph glyph-name="d" unicode="d" 
d="M162 106v364q0 33 -22 33t-22 -33v-364q0 -32 22 -32t22 32zM257 0h-94v44h-2q-21 -51 -71 -51q-40 0 -55 26q-13 22 -13 75v384q0 55 14 78q15 27 55 27q47 0 68 -48h3v185h95v-720z" />
    <glyph glyph-name="e" unicode="e" 
d="M161 343v141q0 32 -22 32t-22 -32v-141h44zM117 93q0 -33 22 -33t22 33v135h97v-126q0 -111 -119 -111t-119 111v372q0 112 119 112t119 -112v-200h-141v-181z" />
    <glyph glyph-name="f" unicode="f" horiz-adv-x="140" 
d="M22 0v498h-27v78h27v44q0 53 9 71q15 29 64 29h52v-79h-5q-24 0 -24 -25v-40h29v-78h-29v-498h-96z" />
    <glyph glyph-name="g" unicode="g" horiz-adv-x="279" 
d="M162 184v286q0 33 -22 33t-22 -33v-286q0 -32 22 -32t22 32zM257 -18q0 -112 -118 -112q-117 0 -117 112v60h96v-64q0 -32 22 -32t22 32v134h-3q-21 -49 -68 -49q-40 0 -55 27q-14 24 -14 79v313q0 53 13 75q15 26 55 26q52 0 71 -51h2v44h94v-594z" />
    <glyph glyph-name="h" unicode="h" 
d="M22 0v720h96v-188h2q20 51 69 51q40 0 55 -26q13 -22 13 -75v-482h-95v470q0 33 -22 33t-22 -33v-470h-96z" />
    <glyph glyph-name="i" unicode="i" horiz-adv-x="140" 
d="M22 0v576h96v-576h-96zM22 618v102h96v-102h-96z" />
    <glyph glyph-name="j" unicode="j" horiz-adv-x="140" 
d="M22 -17v593h96v-606q0 -56 -13 -75q-17 -25 -73 -25h-55v80h7q38 0 38 33zM22 618v102h96v-102h-96z" />
    <glyph glyph-name="k" unicode="k" horiz-adv-x="277" 
d="M22 0v720h96v-407h5l49 263h98l-59 -258l66 -318h-99l-55 303h-5v-303h-96z" />
    <glyph glyph-name="l" unicode="l" horiz-adv-x="140" 
d="M22 0v720h96v-720h-96z" />
    <glyph glyph-name="m" unicode="m" horiz-adv-x="412" 
d="M22 0v576h92v-44h2q21 51 71 51q51 0 67 -51h2q17 51 69 51q39 0 54 -26q13 -22 13 -75v-482h-94v470q0 33 -22 33t-22 -33v-470h-94v470q0 33 -22 33t-22 -33v-470h-94z" />
    <glyph glyph-name="n" unicode="n" 
d="M22 0v576h94v-44h2q23 51 71 51q40 0 55 -26q13 -22 13 -75v-482h-95v470q0 33 -22 33t-22 -33v-470h-96z" />
    <glyph glyph-name="o" unicode="o" 
d="M20 474q0 112 119 112t119 -112v-372q0 -111 -119 -111t-119 111v372zM117 484v-391q0 -33 22 -33t22 33v391q0 32 -22 32t-22 -32z" />
    <glyph glyph-name="p" unicode="p" 
d="M22 -130v706h94v-44h2q23 51 71 51q40 0 55 -26q13 -22 13 -75v-383q0 -55 -13 -79q-16 -27 -56 -27q-48 0 -68 48h-2v-171h-96zM118 470v-364q0 -32 22 -32t22 32v364q0 33 -22 33t-22 -33z" />
    <glyph glyph-name="q" unicode="q" 
d="M257 -130h-95v171h-3q-20 -48 -68 -48q-40 0 -55 27q-14 24 -14 79v383q0 53 13 75q15 26 55 26q48 0 71 -51h2v44h94v-706zM162 470q0 33 -22 33t-22 -33v-364q0 -32 22 -32t22 32v364z" />
    <glyph glyph-name="r" unicode="r" horiz-adv-x="273" 
d="M22 0v576h94v-44h2q21 51 71 51q40 0 55 -26q13 -22 13 -75v-205h-95v193q0 33 -22 33t-22 -33v-470h-96z" />
    <glyph glyph-name="s" unicode="s" 
d="M161 484q0 32 -22 32t-22 -32v-32q0 -40 25 -71l68 -85q29 -37 34 -44q14 -28 14 -72v-78q0 -111 -119 -111t-119 111v126h97v-135q0 -33 22 -33t22 33v44q0 52 -21 78l-75 93q-45 56 -45 104v62q0 112 119 112t119 -112v-107h-97v117z" />
    <glyph glyph-name="t" unicode="t" horiz-adv-x="140" 
d="M150 0h-53q-49 0 -63 16q-12 13 -12 54v428h-27v78h27v110h96v-110h30v-78h-30v-395q0 -25 18 -25h14v-78z" />
    <glyph glyph-name="u" unicode="u" 
d="M257 576v-576h-94v44h-2q-21 -51 -71 -51q-40 0 -55 26q-13 22 -13 75v482h96v-470q0 -32 22 -32t22 32v470h95z" />
    <glyph glyph-name="v" unicode="v" horiz-adv-x="275" 
d="M75 0l-75 576h91l23 -183q18 -147 20 -289h10q6 213 19 312l21 160h90l-75 -576h-124z" />
    <glyph glyph-name="w" unicode="w" horiz-adv-x="437" 
d="M68 0l-68 576h101l17 -220q11 -142 11 -246h7q3 144 9 214l22 252h107l23 -268q7 -82 7 -171v-27h7q4 148 11 224l21 242h94l-70 -576h-105l-26 198q-15 114 -15 254h-4q-2 -131 -11 -216l-26 -236h-112z" />
    <glyph glyph-name="x" unicode="x" horiz-adv-x="256" 
d="M2 0l56 304l-52 272h97q22 -126 24 -187h5q0 51 20 187h91l-46 -271l57 -305h-96q-28 132 -32 234h-5q0 -64 -29 -234h-90z" />
    <glyph glyph-name="y" unicode="y" horiz-adv-x="271" 
d="M18 -50h32q31 0 31 26q0 6 -1 13l-82 587h99l19 -177q18 -168 18 -279v-16h10q4 188 18 312l18 160h92l-80 -590q-11 -78 -33 -97t-105 -19h-36v80z" />
    <glyph glyph-name="z" unicode="z" horiz-adv-x="233" 
d="M8 0v78l108 424h-108v74h209v-79l-106 -416h113v-81h-216z" />
    <glyph glyph-name="braceleft" unicode="{" horiz-adv-x="500" 
d="M427 721v-87q-4 0 -12 1h-11q-56 0 -73.5 -22t-17.5 -83v-118q0 -72 -19 -103q-21 -36 -80 -50q59 -14 80 -50q19 -32 19 -103v-117q0 -62 17.5 -84t74.5 -22h11q7 1 11 1v-86h-31q-92 0 -133 24q-34 20 -44 65q-6 25 -6 81v121q0 70 -25.5 99t-87.5 29h-10q-7 -1 -11 -1
v87h11q7 -1 10 -1q62 0 87.5 29t25.5 98v121q0 63 8 91q11 37 42 56q40 24 142 24h22z" />
    <glyph glyph-name="bar" unicode="|" horiz-adv-x="500" 
d="M207 764h87v-1000h-87v1000z" />
    <glyph glyph-name="braceright" unicode="}" horiz-adv-x="500" 
d="M74 721h22q101 0 141 -24q31 -19 42 -56q8 -29 8 -91v-121q0 -69 25 -98t88 -29q3 0 10 1h11v-87q-3 0 -10 1h-11q-62 0 -87.5 -29t-25.5 -99v-121q0 -62 -8 -90q-11 -37 -42 -56q-40 -24 -141 -24h-22v86q4 0 11 -1h11q56 0 75 23q16 21 16 83v117q0 71 19 103
q22 36 81 50q-60 14 -81 50q-19 32 -19 103v118q0 61 -16 82q-19 23 -74 23h-11q-8 -1 -12 -1v87z" />
    <glyph glyph-name="asciitilde" unicode="~" horiz-adv-x="833" 
d="M747 383v-90q-100 -69 -186 -69q-42 0 -93 17q-90 30 -98 33q-54 15 -95 15q-79 0 -188 -77v91q103 70 189 70q59 0 143 -29q105 -36 143 -36q81 0 185 75z" />
    <glyph glyph-name="euro" horiz-adv-x="498" 
d="M522 633l-23 -156l-48 6q0 157 -94 157q-103 0 -161 -211h172l-21 -48h-164q-6 -24 -16 -73h147l-21 -47h-134q-6 -41 -6 -74q0 -56 21 -91q26 -43 78 -43q58 0 101 68q24 38 51 119l55 -10l-54 -188q-77 -53 -159 -53q-111 0 -166 84q-47 71 -47 188h-74l21 47h56
q3 25 12 73h-66l21 48h59q41 112 108 183q83 88 187 88q94 0 165 -67z" />
    <glyph glyph-name="exclamdown" unicode="&#xa1;" horiz-adv-x="176" 
d="M37 720h102v-117h-102v117zM37 563h102v-563h-102v563z" />
    <glyph glyph-name="cent" unicode="&#xa2;" horiz-adv-x="329" 
d="M284 111q0 -96 -97 -111v-95h-45v95q-97 14 -97 111v372q0 96 97 111v80h45v-80q97 -14 97 -111v-107h-98v117q0 32 -22 32t-22 -32v-391q0 -33 22 -33t22 33v135h98v-126z" />
    <glyph glyph-name="sterling" unicode="&#xa3;" horiz-adv-x="329" 
d="M107 82q32 7 69 7h138v-89h-289v89q46 71 46 138q0 36 -6 88h-40v65h33q-25 158 -25 205q0 150 142 150q78 0 110 -40q28 -36 28 -120v-140h-105v157q0 30 -6 43t-26 13q-34 0 -34 -48t14 -120t14 -100h144v-65h-136q2 -31 2 -54q0 -56 -12 -86q-14 -38 -61 -85v-8z" />
    <glyph glyph-name="currency" unicode="&#xa4;" horiz-adv-x="606" 
d="M82 698l99 -99q53 40 122 40q70 0 123 -40l99 99l46 -45l-100 -100q39 -52 39 -121q0 -68 -39 -121l100 -100l-46 -45l-99 100q-55 -40 -122 -40q-70 0 -123 40l-99 -100l-45 45l99 100q-39 53 -39 121q0 69 39 121l-99 100zM304 574q-58 0 -100 -42t-42 -100
q0 -59 41.5 -100t100.5 -41t100.5 41t41.5 100q0 58 -42 100t-100 42z" />
    <glyph glyph-name="yen" unicode="&#xa5;" horiz-adv-x="329" 
d="M110 0v272h-107v49h94l-18 74h-76v49h64l-65 276h105l39 -159q15 -60 18 -159h5q6 88 22 157l36 161h101l-70 -276h64v-49h-75l-20 -74h95v-49h-107v-272h-105z" />
    <glyph glyph-name="brokenbar" unicode="&#xa6;" horiz-adv-x="500" 
d="M207 699h87v-370h-87v370zM207 199h87v-370h-87v370z" />
    <glyph glyph-name="section" unicode="&#xa7;" horiz-adv-x="343" 
d="M118 435v-77q0 -38 12 -60q15 -29 60 -53l35 -19v77q0 39 -9 57q-12 25 -50 47zM309 497h-87v103q0 63 -53 63q-34 0 -45 -20q-7 -14 -7 -50t13 -54.5t52 -40.5l51 -29q46 -26 63 -58q15 -28 15 -77q0 -59 -5 -80q-7 -31 -32 -45q24 -17 32 -43q6 -19 6 -59
q0 -91 -33 -135t-109 -44q-139 0 -139 153v94h87v-110q0 -64 56 -64q34 0 45 17q8 13 8 54t-10.5 56.5t-55.5 40.5l-52 29q-50 28 -66 66q-12 29 -12 91q0 81 36 104q-36 37 -36 114q0 162 141 162q74 0 107 -41q30 -38 30 -121v-76z" />
    <glyph glyph-name="dieresis" unicode="&#xa8;" horiz-adv-x="500" 
d="M272 616v98h66v-98h-66zM162 616v98h66v-98h-66z" />
    <glyph glyph-name="copyright" unicode="&#xa9;" horiz-adv-x="833" 
d="M416 718q151 0 256.5 -105.5t105.5 -255.5q0 -152 -104 -254q-110 -108 -258 -108q-147 0 -254 107t-107 255q0 146 108 256q103 105 253 105zM417 665q-129 0 -217 -89q-91 -93 -91 -219t91 -217t217 -91q125 0 219 92q89 88 89 216q0 129 -89.5 218.5t-218.5 89.5z
M589 441h-81q-11 75 -93 75q-47 0 -75 -41.5t-28 -117.5q0 -155 108 -155q81 0 92 82h81q-4 -65 -52 -105.5t-124 -40.5q-89 0 -141.5 58t-52.5 158q0 102 54 162t142 60q72 0 118.5 -37.5t51.5 -97.5z" />
    <glyph glyph-name="ordfeminine" unicode="&#xaa;" horiz-adv-x="207" 
d="M194 317h-71q-2 12 -2 22v9h-2q-19 -36 -54 -36q-32 0 -43 22q-7 14 -7 49v86q0 31 8.5 49t35.5 33q39 23 44 27q16 14 16 39v39q0 22 -16 22t-16 -22v-82h-72v75q0 78 88 78t88 -78v-286q0 -22 3 -46zM86 471v-80q0 -22 17 -22q16 0 16 22v135q-33 -21 -33 -55z" />
    <glyph glyph-name="guillemotleft" unicode="&#xab;" horiz-adv-x="352" 
d="M162 77l-136 143v138l136 142v-122l-84 -89l84 -87v-125zM325 77l-136 143v138l136 142v-122l-84 -89l84 -87v-125z" />
    <glyph glyph-name="logicalnot" unicode="&#xac;" horiz-adv-x="833" 
d="M124 421h585v-245h-81v164h-504v81z" />
    <glyph glyph-name="sfthyphen" unicode="&#xad;" horiz-adv-x="338" 
d="M8 174l33 122h246l-33 -122h-246z" />
    <glyph glyph-name="registered" unicode="&#xae;" horiz-adv-x="833" 
d="M416 718q153 0 259 -108q103 -105 103 -253q0 -153 -106 -256q-109 -106 -256 -106q-149 0 -255 108t-106 254q0 149 109 258q103 103 252 103zM417 665q-128 0 -215 -88q-93 -94 -93 -220t90 -217t213 -91q130 0 223 90q90 87 90 213q0 132 -88 221q-91 92 -220 92z
M269 566h156q171 0 171 -110q0 -92 -90 -112l90 -183h-97l-80 169h-63v-169h-87v405zM356 511v-127h57q94 0 94 62q0 65 -98 65h-53z" />
    <glyph glyph-name="macron" unicode="&#xaf;" horiz-adv-x="500" 
d="M171 634v63h157v-63h-157z" />
    <glyph glyph-name="macron" unicode="&#x2c9;" horiz-adv-x="500" 
d="M171 634v63h157v-63h-157z" />
    <glyph glyph-name="degree" unicode="&#xb0;" horiz-adv-x="329" 
d="M165 713q59 0 101.5 -42.5t42.5 -102.5q0 -59 -42.5 -101.5t-102.5 -42.5t-101.5 41.5t-41.5 102.5t42 103t102 42zM165 659q-38 0 -64.5 -26.5t-26.5 -63.5t27 -64t64 -27q38 0 64 27t26 64q0 38 -26 64t-64 26z" />
    <glyph glyph-name="plusminus" unicode="&#xb1;" horiz-adv-x="833" 
d="M375 589h83v-163h251v-81h-251v-163h-83v163h-251v81h251v163zM124 89h585v-82h-585v82z" />
    <glyph glyph-name="twosuperior" unicode="&#xb2;" horiz-adv-x="217" 
d="M95 339h104v-52h-184q-1 8 -1 23q0 68 46 150q23 38 46 77.5t23 77.5v36q0 24 -21 24q-20 0 -20 -24v-82h-71v76q0 83 95 83q89 0 89 -73v-52q0 -36 -18 -74q-4 -8 -36 -61q-51 -85 -52 -129z" />
    <glyph glyph-name="threesuperior" unicode="&#xb3;" horiz-adv-x="217" 
d="M17 444h71v-86q0 -27 20 -27t20 27v83q0 20 -7 28t-29 8h-4v49h6q34 0 34 38v87q0 2 -1 11q0 14 -19 14q-20 0 -20 -25v-89h-71v83q0 83 91 83t91 -83v-75q0 -61 -54 -68q32 -4 43 -16.5t11 -41.5v-84q0 -83 -91 -83t-91 83v84z" />
    <glyph glyph-name="acute" unicode="&#xb4;" horiz-adv-x="500" 
d="M266 611h-58l35 109h91z" />
    <glyph glyph-name="mu" unicode="&#xb5;" horiz-adv-x="590" 
d="M100 528h112l-61 -310q-6 -30 -6 -51q0 -96 89 -96q61 0 95.5 44.5t53.5 141.5l53 271h110l-71 -361q-9 -46 -9 -65q0 -32 33 -32q11 0 17 1l-16 -78q-31 -8 -73 -8q-73 0 -73 61v7q-42 -69 -124 -69q-76 0 -115 53l-48 -247h-112z" />
    <glyph glyph-name="mu" unicode="&#x3bc;" horiz-adv-x="590" 
d="M100 528h112l-61 -310q-6 -30 -6 -51q0 -96 89 -96q61 0 95.5 44.5t53.5 141.5l53 271h110l-71 -361q-9 -46 -9 -65q0 -32 33 -32q11 0 17 1l-16 -78q-31 -8 -73 -8q-73 0 -73 61v7q-42 -69 -124 -69q-76 0 -115 53l-48 -247h-112z" />
    <glyph glyph-name="paragraph" unicode="&#xb6;" horiz-adv-x="500" 
d="M473 722v-48h-57v-674h-63v674h-83v-674h-63v383q-83 3 -131.5 49.5t-48.5 119.5q0 76 52 123t139 47h255z" />
    <glyph glyph-name="ch270" unicode="&#xb7;" horiz-adv-x="249" 
d="M38 348q0 34 23 57t57 23t57.5 -23t23.5 -57t-23.5 -57.5t-57.5 -23.5t-57 23.5t-23 57.5z" />
    <glyph glyph-name="ch270" unicode="&#x2219;" horiz-adv-x="249" 
d="M38 348q0 34 23 57t57 23t57.5 -23t23.5 -57t-23.5 -57.5t-57.5 -23.5t-57 23.5t-23 57.5z" />
    <glyph glyph-name="cedilla" unicode="&#xb8;" horiz-adv-x="500" 
d="M156 -130l58 97h61l-33 -97h-86z" />
    <glyph glyph-name="onesuperior" unicode="&#xb9;" horiz-adv-x="217" 
d="M75 287v328h-52v48q65 3 65 55v1h58v-432h-71z" />
    <glyph glyph-name="ordmasculine" unicode="&#xba;" horiz-adv-x="209" 
d="M15 649q0 78 89 78q90 0 90 -78v-261q0 -77 -90 -77q-89 0 -89 77v261zM88 656v-274q0 -23 16 -23q17 0 17 23v274q0 22 -17 22q-16 0 -16 -22z" />
    <glyph glyph-name="guillemotright" unicode="&#xbb;" horiz-adv-x="352" 
d="M189 77v125l84 87l-84 89v122l136 -142v-138zM26 77v125l84 87l-84 89v122l136 -142v-138z" />
    <glyph glyph-name="onequarter" unicode="&#xbc;" horiz-adv-x="581" 
d="M72 316v306h-49v45q61 3 61 51v1h56v-403h-68zM53 -16l423 751h52l-423 -751h-52zM433 150h54l4 146q0 2 5 55h-6q-4 -18 -12 -52zM485 0v100h-110v46l85 257h92v-253h29v-50h-29v-100h-67z" />
    <glyph glyph-name="onehalf" unicode="&#xbd;" horiz-adv-x="581" 
d="M72 316v306h-49v45q61 3 61 51v1h56v-403h-68zM53 -16l423 751h52l-423 -751h-52zM465 49h99v-49h-176q-1 8 -1 22q0 64 44 140l44 70q22 39 22 74v34q0 22 -20 22q-19 0 -19 -22v-77h-68v71q0 78 90 78q86 0 86 -69v-48q0 -33 -17 -68q-1 -2 -35 -58q-48 -80 -49 -120z
" />
    <glyph glyph-name="threequarters" unicode="&#xbe;" horiz-adv-x="582" 
d="M16 463h68v-81q0 -25 19 -25t19 25v77q0 19 -7 26.5t-27 7.5h-4v46h5q33 0 33 36v91q0 13 -19 13t-19 -24v-83h-68v78q0 78 87 78t87 -78v-70q0 -56 -52 -63q30 -4 41 -14.5t11 -39.5v-79q0 -77 -87 -77t-87 77v79zM53 -16l423 751h52l-423 -751h-52zM433 150h54l4 146
q0 2 5 55h-6q-4 -18 -12 -52zM485 0v100h-110v46l85 257h92v-253h29v-50h-29v-100h-67z" />
    <glyph glyph-name="questiondown" unicode="&#xbf;" horiz-adv-x="261" 
d="M184 603h-97v117h97v-117zM110 186v-99q0 -33 22 -33t22 33v175h97v-166q0 -111 -119 -111q-120 0 -120 111v91q0 41 12 74q4 13 25 54q24 48 26 54q12 29 12 65v128h97v-159q0 -44 -28.5 -96t-30.5 -57q-15 -33 -15 -64z" />
    <glyph glyph-name="Agrave" unicode="&#xc0;" horiz-adv-x="328" 
d="M185 760h-38l-118 109h91zM327 0h-109l-22 194h-67l-23 -194h-106l86 720h163zM188 287l-11 179q-4 61 -11 146h-5q-2 -39 -10 -147l-13 -178h50z" />
    <glyph glyph-name="Aacute" unicode="&#xc1;" horiz-adv-x="328" 
d="M138 287h50l-11 179q-4 61 -11 146h-5q-2 -39 -10 -147zM0 0l86 720h163l78 -720h-109l-22 194h-67l-23 -194h-106zM185 760h-38l65 109h91z" />
    <glyph glyph-name="Acircumflex" unicode="&#xc2;" horiz-adv-x="328" 
d="M138 287h50l-11 179q-4 61 -11 146h-5q-2 -39 -10 -147zM0 0l86 720h163l78 -720h-109l-22 194h-67l-23 -194h-106zM114 730h-59l80 89h62l80 -89h-59l-52 34z" />
    <glyph glyph-name="Atilde" unicode="&#xc3;" horiz-adv-x="328" 
d="M138 287h50l-11 179q-4 61 -11 146h-5q-2 -39 -10 -147zM0 0l86 720h163l78 -720h-109l-22 194h-67l-23 -194h-106zM287 834q-55 -87 -112 -80q-14 2 -28.5 20t-21.5 18q-18 4 -35 -25q-2 -2 -4 -6l-38 -1q1 2 4 7q52 79 109 72q15 -2 28.5 -19t20.5 -18q11 -2 23 9
t16 23h38z" />
    <glyph glyph-name="Adieresis" unicode="&#xc4;" horiz-adv-x="328" 
d="M138 287h50l-11 179q-4 64 -11 146h-5q-2 -37 -10 -147zM0 0l86 720h163l78 -720h-109l-22 194h-67l-23 -194h-106zM186 765v98h66v-98h-66zM76 765v98h66v-98h-66z" />
    <glyph glyph-name="Aring" unicode="&#xc5;" horiz-adv-x="328" 
d="M138 287h50l-11 179q-4 64 -11 146h-5q-2 -37 -10 -147zM0 0l86 720h163l78 -720h-109l-22 194h-67l-23 -194h-106zM137 820q0 -12 9 -21t22 -9q29 0 29 30t-29 30q-31 0 -31 -30zM90 820q0 32 23 54.5t55 22.5q31 0 53.5 -22.5t22.5 -54.5t-22 -54.5t-54 -22.5t-55 22.5
t-23 54.5z" />
    <glyph glyph-name="AE" unicode="&#xc6;" horiz-adv-x="458" 
d="M212 0v196h-82l-39 -196h-108l151 720h315v-99h-130v-180h127v-95h-127v-247h130v-99h-237zM149 292h63v329h-9z" />
    <glyph glyph-name="Ccedilla" unicode="&#xc7;" horiz-adv-x="312" 
d="M193 606q0 43 -31 43t-31 -43v-488q0 -44 31 -44t31 44v162h108v-158q0 -138 -139 -138t-139 138v475q0 138 139 138t139 -138v-143h-108v152zM65 -130l58 97h61l-33 -97h-86z" />
    <glyph glyph-name="Egrave" unicode="&#xc8;" horiz-adv-x="273" 
d="M28 0v720h237v-98h-130v-181h127v-95h-127v-247h130v-99h-237zM166 760h-38l-118 109h91z" />
    <glyph glyph-name="Eacute" unicode="&#xc9;" horiz-adv-x="273" 
d="M28 0v720h237v-98h-130v-181h127v-95h-127v-247h130v-99h-237zM166 760h-38l65 109h91z" />
    <glyph glyph-name="Ecircumflex" unicode="&#xca;" horiz-adv-x="273" 
d="M28 0v720h237v-98h-130v-181h127v-95h-127v-247h130v-99h-237zM95 735h-59l80 89h62l80 -89h-59l-52 34z" />
    <glyph glyph-name="Edieresis" unicode="&#xcb;" horiz-adv-x="273" 
d="M28 0v720h237v-98h-130v-181h127v-95h-127v-247h130v-99h-237zM168 765v98h66v-98h-66zM58 765v98h66v-98h-66z" />
    <glyph glyph-name="Igrave" unicode="&#xcc;" horiz-adv-x="163" 
d="M135 0h-107v720h107v-720zM101 760h-38l-118 109h91z" />
    <glyph glyph-name="Iacute" unicode="&#xcd;" horiz-adv-x="163" 
d="M135 0h-107v720h107v-720zM101 760h-38l65 109h91z" />
    <glyph glyph-name="Icircumflex" unicode="&#xce;" horiz-adv-x="163" 
d="M135 0h-107v720h107v-720zM50 760h-59l55 109h72l55 -109h-59l-32 54z" />
    <glyph glyph-name="Idieresis" unicode="&#xcf;" horiz-adv-x="163" 
d="M135 0h-107v720h107v-720zM104 765v98h66v-98h-66zM-6 765v98h66v-98h-66z" />
    <glyph glyph-name="Eth" unicode="&#xd0;" horiz-adv-x="352" 
d="M156 355v-267h23q40 0 40 47v455q0 47 -40 47h-23v-194h41v-88h-41zM49 355h-41v88h41v277h127q79 0 114.5 -31t35.5 -101v-456q0 -70 -35.5 -101t-114.5 -31h-127v355z" />
    <glyph glyph-name="Ntilde" unicode="&#xd1;" horiz-adv-x="384" 
d="M28 0v720h163l40 -295q20 -146 37 -335h6l-4 248l-3 382h89v-720h-159l-52 398q-22 169 -29 236h-7l3 -181l3 -453h-87zM296 864q0 -95 -56 -95q-17 0 -39.5 15.5t-31.5 15.5q-18 0 -18 -29v-6h-39v7q0 87 57 87q16 0 38.5 -15t31.5 -15q19 0 19 27v4q-1 3 -1 4h39z" />
    <glyph glyph-name="Ograve" unicode="&#xd2;" horiz-adv-x="329" 
d="M25 597q0 138 139 138t139 -138v-475q0 -138 -139 -138t-139 138v475zM133 606v-488q0 -44 31 -44q32 0 32 44v488q0 43 -32 43q-31 0 -31 -43zM183 775h-38l-118 109h91z" />
    <glyph glyph-name="Oacute" unicode="&#xd3;" horiz-adv-x="329" 
d="M25 597q0 138 139 138t139 -138v-475q0 -138 -139 -138t-139 138v475zM133 606v-488q0 -44 31 -44q32 0 32 44v488q0 43 -32 43q-31 0 -31 -43zM183 775h-38l65 109h91z" />
    <glyph glyph-name="Ocircumflex" unicode="&#xd4;" horiz-adv-x="329" 
d="M25 597q0 138 139 138t139 -138v-475q0 -138 -139 -138t-139 138v475zM133 606v-488q0 -44 31 -44q32 0 32 44v488q0 43 -32 43q-31 0 -31 -43zM112 735h-59l80 89h62l80 -89h-59l-52 34z" />
    <glyph glyph-name="Otilde" unicode="&#xd5;" horiz-adv-x="329" 
d="M25 597q0 138 139 138t139 -138v-475q0 -138 -139 -138t-139 138v475zM133 606v-488q0 -44 31 -44q32 0 32 44v488q0 43 -32 43q-31 0 -31 -43zM285 850q-55 -87 -112 -80q-14 2 -28.5 20t-21.5 18q-18 4 -35 -25q-2 -2 -4 -6l-38 -1q1 2 4 7q52 79 109 72
q15 -2 28.5 -19t20.5 -18q11 -2 23 9t16 23h38z" />
    <glyph glyph-name="Odieresis" unicode="&#xd6;" horiz-adv-x="329" 
d="M25 597q0 138 139 138t139 -138v-475q0 -138 -139 -138t-139 138v475zM133 606v-488q0 -44 31 -44q32 0 32 44v488q0 43 -32 43q-31 0 -31 -43zM192 765v98h66v-98h-66zM82 765v98h66v-98h-66z" />
    <glyph glyph-name="multiply" unicode="&#xd7;" horiz-adv-x="833" 
d="M197 580l224 -224l225 224l57 -57l-224 -225l224 -224l-57 -58l-225 225l-224 -225l-57 58l224 224l-224 225z" />
    <glyph glyph-name="Oslash" unicode="&#xd8;" horiz-adv-x="329" 
d="M25 597q0 138 139 138q29 0 55 -7q1 0 14 -5l22 82h55l-30 -117q23 -31 23 -91v-475q0 -138 -139 -138q-42 0 -69 13l-20 -74h-58l30 111q-22 27 -22 88v475zM199 567v39q0 43 -35 43q-34 0 -34 -43v-334q5 31 22 102zM130 156v-38q0 -43 34 -43q35 0 35 43v324
q-13 -61 -22 -96z" />
    <glyph glyph-name="Ugrave" unicode="&#xd9;" horiz-adv-x="329" 
d="M25 122v598h108v-602q0 -44 31 -44q32 0 32 44v602h107v-598q0 -138 -139 -138t-139 138zM183 735h-38l-118 109h91z" />
    <glyph glyph-name="Uacute" unicode="&#xda;" horiz-adv-x="329" 
d="M25 122v598h108v-602q0 -44 31 -44q32 0 32 44v602h107v-598q0 -138 -139 -138t-139 138zM183 735h-38l65 109h91z" />
    <glyph glyph-name="Ucircumflex" unicode="&#xdb;" horiz-adv-x="329" 
d="M25 122v598h108v-602q0 -44 31 -44q32 0 32 44v602h107v-598q0 -138 -139 -138t-139 138zM133 760h-59l55 109h72l55 -109h-59l-32 54z" />
    <glyph glyph-name="Udieresis" unicode="&#xdc;" horiz-adv-x="329" 
d="M25 122v598h108v-602q0 -44 31 -44q32 0 32 44v602h107v-598q0 -138 -139 -138t-139 138zM187 765v98h66v-98h-66zM77 765v98h66v-98h-66z" />
    <glyph glyph-name="Yacute" unicode="&#xdd;" horiz-adv-x="290" 
d="M90 0v270l-106 450h106l39 -158q15 -61 18 -156h4q5 84 21 153l37 161h101l-110 -450v-270h-110zM169 720h-38l65 109h91z" />
    <glyph glyph-name="Thorn" unicode="&#xde;" horiz-adv-x="314" 
d="M28 0v720h107v-114h20q151 0 151 -131v-176q0 -70 -36 -101t-115 -31h-20v-167h-107zM135 252h23q40 0 40 47v176q0 47 -40 47h-23v-270z" />
    <glyph glyph-name="germandbls" unicode="&#xdf;" horiz-adv-x="281" 
d="M23 0v597q0 73 26.5 105.5t91.5 32.5q67 0 93.5 -32t26.5 -104v-79q0 -88 -64 -102v-5q37 -8 52 -37q12 -27 12 -86v-178q0 -61 -17 -86.5t-60 -25.5h-47v81h6q21 0 21 35v219q0 20 -4.5 27t-22.5 7v78h5q22 0 22 35v144q0 37 -22 37q-23 0 -23 -37v-626h-96z" />
    <glyph glyph-name="agrave" unicode="&#xe0;" horiz-adv-x="276" 
d="M259 0h-95q-3 14 -3 32v12h-2q-26 -51 -72 -51q-43 0 -58 32q-9 20 -9 69v123q0 46 11.5 70.5t47.5 47.5q53 33 58 38q22 20 22 56v55q0 32 -22 32q-21 0 -21 -32v-117h-96v107q0 112 117 112q118 0 118 -112v-408q0 -35 4 -66zM115 220v-114q0 -32 22 -32t22 32v193
q-26 -17 -35 -33t-9 -46zM156 626h-38l-118 109h91z" />
    <glyph glyph-name="aacute" unicode="&#xe1;" horiz-adv-x="276" 
d="M259 0h-95q-3 14 -3 32v12h-2q-26 -51 -72 -51q-43 0 -58 32q-9 20 -9 69v123q0 46 11.5 70.5t47.5 47.5q53 33 58 38q22 20 22 56v55q0 32 -22 32q-21 0 -21 -32v-117h-96v107q0 112 117 112q118 0 118 -112v-408q0 -35 4 -66zM115 220v-114q0 -32 22 -32t22 32v193
q-26 -17 -35 -33t-9 -46zM157 626h-38l65 109h91z" />
    <glyph glyph-name="acircumflex" unicode="&#xe2;" horiz-adv-x="276" 
d="M259 0h-95q-3 14 -3 32v12h-2q-26 -51 -72 -51q-43 0 -58 32q-9 20 -9 69v123q0 46 11.5 70.5t47.5 47.5q53 33 58 38q22 20 22 56v55q0 32 -22 32q-21 0 -21 -32v-117h-96v107q0 112 117 112q118 0 118 -112v-408q0 -35 4 -66zM115 220v-114q0 -32 22 -32t22 32v193
q-26 -17 -35 -33t-9 -46zM85 596h-59l80 89h62l80 -89h-59l-52 34z" />
    <glyph glyph-name="atilde" unicode="&#xe3;" horiz-adv-x="276" 
d="M259 0h-95q-3 14 -3 32v12h-2q-26 -51 -72 -51q-43 0 -58 32q-9 20 -9 69v123q0 46 11.5 70.5t47.5 47.5q53 33 58 38q22 20 22 56v55q0 32 -22 32q-21 0 -21 -32v-117h-96v107q0 112 117 112q118 0 118 -112v-408q0 -35 4 -66zM115 220v-114q0 -32 22 -32t22 32v193
q-26 -17 -35 -33t-9 -46zM258 700q-55 -87 -112 -80q-14 2 -28.5 20t-21.5 18q-18 4 -35 -25q-2 -2 -4 -6l-38 -1q1 2 4 7q52 79 109 72q15 -2 28.5 -19t20.5 -18q11 -2 23 9t16 23h38z" />
    <glyph glyph-name="adieresis" unicode="&#xe4;" horiz-adv-x="276" 
d="M259 0h-95q-3 14 -3 32v12h-2q-26 -51 -72 -51q-43 0 -58 32q-9 20 -9 69v123q0 45 10 68q13 27 49 50q53 33 58 38q22 20 22 56v55q0 32 -22 32q-21 0 -21 -32v-117h-96v107q0 112 117 112q118 0 118 -112v-408q0 -35 4 -66zM115 220v-114q0 -32 22 -32t22 32v193
q-26 -17 -35 -33t-9 -46zM167 616v98h66v-98h-66zM57 616v98h66v-98h-66z" />
    <glyph glyph-name="aring" unicode="&#xe5;" horiz-adv-x="276" 
d="M259 0h-95q-3 14 -3 32v12h-2q-26 -51 -72 -51q-43 0 -58 32q-9 20 -9 69v123q0 45 10 68q13 27 49 50q53 33 58 38q22 20 22 56v55q0 32 -22 32q-21 0 -21 -32v-117h-96v107q0 112 117 112q118 0 118 -112v-408q0 -35 4 -66zM115 220v-114q0 -32 22 -32t22 32v193
q-26 -17 -35 -33t-9 -46zM59 686q0 32 23 54.5t55 22.5t54.5 -22.5t22.5 -54.5t-22.5 -54.5t-54.5 -22.5t-55 22.5t-23 54.5zM107 686q0 -30 30 -30q29 0 29 30t-29 30q-30 0 -30 -30z" />
    <glyph glyph-name="ae" unicode="&#xe6;" horiz-adv-x="416" 
d="M398 228v-126q0 -111 -119 -111q-77 0 -109 52q-34 -50 -83 -50q-43 0 -58 32q-9 20 -9 69v123q0 45 10 68q13 27 49 50q53 33 58 38q22 20 22 56v55q0 32 -22 32q-21 0 -21 -32v-117h-96v107q0 112 117 112q44 0 71 -22q31 22 70 22q120 0 120 -112v-200h-141v-181
q0 -33 22 -33t22 33v135h97zM301 343v141q0 32 -22 32t-22 -32v-141h44zM115 222v-116q0 -32 22 -32t22 32v193q-44 -28 -44 -77z" />
    <glyph glyph-name="ccedilla" unicode="&#xe7;" 
d="M258 102q0 -111 -119 -111t-119 111v372q0 112 119 112t119 -112v-107h-97v117q0 32 -22 32t-22 -32v-391q0 -33 22 -33t22 33v135h97v-126zM45 -130l58 97h61l-33 -97h-86z" />
    <glyph glyph-name="egrave" unicode="&#xe8;" 
d="M161 343v141q0 32 -22 32t-22 -32v-141h44zM117 93q0 -33 22 -33t22 33v135h97v-126q0 -111 -119 -111t-119 111v372q0 112 119 112t119 -112v-200h-141v-181zM158 626h-38l-118 109h91z" />
    <glyph glyph-name="eacute" unicode="&#xe9;" 
d="M161 343v141q0 32 -22 32t-22 -32v-141h44zM117 93q0 -33 22 -33t22 33v135h97v-126q0 -111 -119 -111t-119 111v372q0 112 119 112t119 -112v-200h-141v-181zM159 626h-38l65 109h91z" />
    <glyph glyph-name="ecircumflex" unicode="&#xea;" 
d="M161 343v141q0 32 -22 32t-22 -32v-141h44zM117 93q0 -33 22 -33t22 33v135h97v-126q0 -111 -119 -111t-119 111v372q0 112 119 112t119 -112v-200h-141v-181zM87 596h-59l80 89h62l80 -89h-59l-52 34z" />
    <glyph glyph-name="edieresis" unicode="&#xeb;" 
d="M161 343v141q0 32 -22 32t-22 -32v-141h44zM117 93q0 -33 22 -33t22 33v135h97v-126q0 -111 -119 -111t-119 111v372q0 112 119 112t119 -112v-200h-141v-181zM162 616v98h66v-98h-66zM52 616v98h66v-98h-66z" />
    <glyph glyph-name="igrave" unicode="&#xec;" horiz-adv-x="140" 
d="M22 0v576h96v-576h-96zM89 616h-38l-118 109h91z" />
    <glyph glyph-name="iacute" unicode="&#xed;" horiz-adv-x="140" 
d="M22 0v576h96v-576h-96zM89 616h-38l65 109h91z" />
    <glyph glyph-name="icircumflex" unicode="&#xee;" horiz-adv-x="140" 
d="M22 0v576h96v-576h-96zM38 611h-59l55 109h72l55 -109h-59l-32 54z" />
    <glyph glyph-name="idieresis" unicode="&#xef;" horiz-adv-x="140" 
d="M22 0v576h96v-576h-96zM92 616v98h66v-98h-66zM-18 616v98h66v-98h-66z" />
    <glyph glyph-name="eth" unicode="&#xf0;" 
d="M144 554q-15 34 -32 63l-79 -28l-12 35l72 26q-14 25 -29 46l63 38q15 -19 41 -57l73 26l13 -36l-67 -23q71 -115 71 -222v-327q0 -104 -119 -104t-119 104v376q0 54 11 75q15 27 59 27q29 0 54 -19zM117 471v-381q0 -30 22 -30t22 30v381q0 30 -22 30t-22 -30z" />
    <glyph glyph-name="ntilde" unicode="&#xf1;" 
d="M22 0v576h94v-44h2q23 51 71 51q40 0 55 -26q13 -22 13 -75v-482h-95v470q0 33 -22 33t-22 -33v-470h-96zM234 715q0 -95 -56 -95q-17 0 -39.5 15.5t-31.5 15.5q-18 0 -18 -29v-6h-39v7q0 87 57 87q16 0 38.5 -15t31.5 -15q19 0 19 27v4q-1 3 -1 4h39z" />
    <glyph glyph-name="ograve" unicode="&#xf2;" 
d="M20 474q0 112 119 112t119 -112v-372q0 -111 -119 -111t-119 111v372zM117 484v-391q0 -33 22 -33t22 33v391q0 32 -22 32t-22 -32zM158 626h-38l-118 109h91z" />
    <glyph glyph-name="oacute" unicode="&#xf3;" 
d="M20 474q0 112 119 112t119 -112v-372q0 -111 -119 -111t-119 111v372zM117 484v-391q0 -33 22 -33t22 33v391q0 32 -22 32t-22 -32zM158 626h-38l65 109h91z" />
    <glyph glyph-name="ocircumflex" unicode="&#xf4;" 
d="M20 474q0 112 119 112t119 -112v-372q0 -111 -119 -111t-119 111v372zM117 484v-391q0 -33 22 -33t22 33v391q0 32 -22 32t-22 -32zM87 596h-59l80 89h62l80 -89h-59l-52 34z" />
    <glyph glyph-name="otilde" unicode="&#xf5;" 
d="M20 474q0 112 119 112t119 -112v-372q0 -111 -119 -111t-119 111v372zM117 484v-391q0 -33 22 -33t22 33v391q0 32 -22 32t-22 -32zM260 700q-55 -87 -112 -80q-14 2 -28.5 20t-21.5 18q-18 4 -35 -25q-2 -2 -4 -6l-38 -1q1 2 4 7q52 79 109 72q15 -2 28.5 -19t20.5 -18
q11 -2 23 9t16 23h38z" />
    <glyph glyph-name="odieresis" unicode="&#xf6;" 
d="M20 474q0 112 119 112t119 -112v-372q0 -111 -119 -111t-119 111v372zM117 484v-391q0 -33 22 -33t22 33v391q0 32 -22 32t-22 -32zM161 616v98h66v-98h-66zM51 616v98h66v-98h-66z" />
    <glyph glyph-name="divide" unicode="&#xf7;" horiz-adv-x="833" 
d="M417 551q28 0 47.5 -20t19.5 -48q0 -27 -19.5 -46.5t-47.5 -19.5t-47.5 19t-19.5 47t20 48t47 20zM124 339h585v-81h-585v81zM417 179q28 0 47.5 -19.5t19.5 -47.5q0 -27 -19.5 -46.5t-47.5 -19.5t-47.5 19t-19.5 47t20 47.5t47 19.5z" />
    <glyph glyph-name="oslash" unicode="&#xf8;" 
d="M20 474q0 112 119 112q39 0 65 -14l27 84h43l-36 -111q20 -27 20 -71v-372q0 -111 -119 -111q-45 0 -75 17l-27 -84h-43l38 117q-12 21 -12 61v372zM113 484v-241l53 185v56q0 32 -27 32q-26 0 -26 -32zM166 93v237l-53 -188v-49q0 -33 26 -33q27 0 27 33z" />
    <glyph glyph-name="ugrave" unicode="&#xf9;" 
d="M257 576v-576h-94v44h-2q-21 -51 -71 -51q-43 0 -58 31q-10 22 -10 70v482h96v-470q0 -32 22 -32t22 32v470h95zM158 596h-38l-118 109h91z" />
    <glyph glyph-name="uacute" unicode="&#xfa;" 
d="M257 576v-576h-94v44h-2q-21 -51 -71 -51q-43 0 -58 31q-10 22 -10 70v482h96v-470q0 -32 22 -32t22 32v470h95zM159 596h-38l65 109h91z" />
    <glyph glyph-name="ucircumflex" unicode="&#xfb;" 
d="M257 576v-576h-94v44h-2q-21 -51 -71 -51q-40 0 -55 26q-13 22 -13 75v482h96v-470q0 -32 22 -32t22 32v470h95zM110 611h-59l55 109h72l55 -109h-59l-32 54z" />
    <glyph glyph-name="udieresis" unicode="&#xfc;" 
d="M257 576v-576h-94v44h-2q-21 -51 -71 -51q-40 0 -55 26q-13 22 -13 75v482h96v-470q0 -32 22 -32t22 32v470h95zM164 616v98h66v-98h-66zM54 616v98h66v-98h-66z" />
    <glyph glyph-name="yacute" unicode="&#xfd;" horiz-adv-x="271" 
d="M18 -50h32q31 0 31 26q0 6 -1 13l-82 587h99l19 -177q18 -168 18 -279v-16h10q4 187 18 312l18 160h92l-80 -590q-11 -78 -34.5 -97t-103.5 -19h-36v80zM157 586h-38l65 109h91z" />
    <glyph glyph-name="thorn" unicode="&#xfe;" 
d="M22 -130v850h96v-188q25 51 71 51q40 0 55 -26q13 -22 13 -75v-383q0 -55 -13 -79q-16 -27 -56 -27q-43 0 -70 48v-171h-96zM118 470v-364q0 -32 22 -32t22 32v364q0 33 -22 33t-22 -33z" />
    <glyph glyph-name="ydieresis" unicode="&#xff;" horiz-adv-x="271" 
d="M18 -50h32q31 0 31 26q0 6 -1 13l-82 587h99l19 -177q18 -168 18 -279v-16h10q4 188 18 312l18 160h92l-80 -590q-11 -78 -33 -97t-105 -19h-36v80zM158 616v98h66v-98h-66zM48 616v98h66v-98h-66z" />
    <glyph glyph-name="glyph271" unicode="&#x102;" horiz-adv-x="328" 
d="M138 287h50l-11 179q-4 61 -11 146h-5q-2 -39 -10 -147zM0 0l86 720h163l78 -720h-109l-22 194h-67l-23 -194h-106zM124 831v-8q0 -46 42 -46t42 43v11l60 5v-8q0 -88 -102 -88q-103 0 -103 89v7z" />
    <glyph glyph-name="glyph272" unicode="&#x103;" horiz-adv-x="276" 
d="M259 0h-95q-3 14 -3 32v12h-2q-26 -51 -72 -51q-43 0 -58 32q-9 20 -9 69v123q0 46 11.5 70.5t47.5 47.5q53 33 58 38q22 20 22 56v55q0 32 -22 32q-21 0 -21 -32v-117h-96v107q0 112 117 112q118 0 118 -112v-408q0 -35 4 -66zM115 220v-114q0 -32 22 -32t22 32v193
q-26 -17 -35 -33t-9 -46zM96 697v-8q0 -46 42 -46t42 43v11l60 5v-8q0 -88 -102 -88q-103 0 -103 89v7z" />
    <glyph glyph-name="Cacute" unicode="&#x106;" horiz-adv-x="711" 
d="M193 606q0 43 -31 43t-31 -43v-488q0 -44 31 -44t31 44v162h108v-158q0 -138 -139 -138t-139 138v475q0 138 139 138t139 -138v-143h-108v152zM443 866h-58l35 109h91z" />
    <glyph glyph-name="cacute" unicode="&#x107;" horiz-adv-x="441" 
d="M258 102q0 -111 -119 -111t-119 111v372q0 112 119 112t119 -112v-107h-97v117q0 32 -22 32t-22 -32v-391q0 -33 22 -33t22 33v135h97v-126zM244 611h-58l35 109h91z" />
    <glyph glyph-name="Ccaron" unicode="&#x10c;" horiz-adv-x="711" 
d="M193 606q0 43 -31 43t-31 -43v-488q0 -44 31 -44t31 44v162h108v-158q0 -138 -139 -138t-139 138v475q0 138 139 138t139 -138v-143h-108v152zM395 975l32 -54l32 54h59l-55 -109h-72l-55 109h59z" />
    <glyph glyph-name="ccaron" unicode="&#x10d;" horiz-adv-x="441" 
d="M258 102q0 -111 -119 -111t-119 111v372q0 112 119 112t119 -112v-107h-97v117q0 32 -22 32t-22 -32v-391q0 -33 22 -33t22 33v135h97v-126zM196 720l32 -54l32 54h59l-55 -109h-72l-55 109h59z" />
    <glyph glyph-name="Dslash" unicode="&#x110;" horiz-adv-x="352" 
d="M156 355v-267h23q40 0 40 47v455q0 47 -40 47h-23v-194h41v-88h-41zM49 355h-41v88h41v277h127q75 0 111 -28q39 -31 39 -104v-456q0 -73 -37.5 -102.5t-112.5 -29.5h-127v355z" />
    <glyph glyph-name="dcroat" unicode="&#x111;" 
d="M162 106v364q0 33 -22 33t-22 -33v-364q0 -32 22 -32t22 32zM257 669h21v-66h-21v-603h-94v44h-2q-21 -51 -71 -51q-43 0 -58 31q-10 22 -10 70v384q0 49 11 72q15 33 58 33q47 0 68 -48h3v68h-60v66h60v51h95v-51z" />
    <glyph glyph-name="Gbreve" unicode="&#x11e;" horiz-adv-x="767" 
d="M196 606q0 43 -32 43q-31 0 -31 -43v-488q0 -44 31 -44q32 0 32 44v158h-46v89h153v-365h-56l-6 44h-3q-33 -62 -100 -62q-113 0 -113 143v472q0 138 139 138t139 -138v-143h-107v152zM416 975v-7q0 -49 30 -49t30 46v10h47v-8q0 -103 -77 -103q-78 0 -78 104v7h48z" />
    <glyph glyph-name="gbreve" unicode="&#x11f;" horiz-adv-x="492" 
d="M162 184v286q0 33 -22 33t-22 -33v-286q0 -32 22 -32t22 32zM257 -18q0 -112 -118 -112q-117 0 -117 112v60h96v-64q0 -32 22 -32t22 32v134h-3q-21 -49 -68 -49q-40 0 -55 27q-14 24 -14 79v313q0 53 13 75q15 26 55 26q52 0 71 -51h2v44h94v-594zM216 720v-7
q0 -49 30 -49t30 46v10h47v-8q0 -103 -77 -103q-78 0 -78 104v7h48z" />
    <glyph glyph-name="glyph273" unicode="&#x128;" horiz-adv-x="163" 
d="M203 834q-55 -87 -112 -80q-14 2 -28.5 20t-21.5 18q-18 4 -35 -25q-2 -2 -4 -6l-38 -1q1 2 4 7q52 79 109 72q15 -2 28.5 -19t20.5 -18q11 -2 23 9t16 23h38zM135 0h-107v720h107v-720z" />
    <glyph glyph-name="glyph274" unicode="&#x129;" horiz-adv-x="140" 
d="M22 0v576h96v-576h-96zM191 690q-55 -87 -112 -80q-14 2 -28.5 20t-21.5 18q-18 4 -35 -25q-2 -2 -4 -6l-38 -1q1 2 4 7q52 79 109 72q15 -2 28.5 -19t20.5 -18q11 -2 23 9t16 23h38z" />
    <glyph glyph-name="Idotaccent" unicode="&#x130;" horiz-adv-x="429" 
d="M135 0h-107v720h107v-720zM243 870v101h68v-101h-68z" />
    <glyph glyph-name="dotlessi" unicode="&#x131;" horiz-adv-x="140" 
d="M22 0v576h96v-576h-96z" />
    <glyph glyph-name="Lslash" unicode="&#x141;" horiz-adv-x="280" 
d="M51 0v295l-51 -35v94l51 36v330h108v-278l60 42v-94l-60 -43v-248h129v-99h-237z" />
    <glyph glyph-name="lslash" unicode="&#x142;" horiz-adv-x="186" 
d="M45 0v312l-45 -32v59l45 31v350h96v-304l45 31v-59l-45 -31v-357h-96z" />
    <glyph glyph-name="OE" unicode="&#x152;" horiz-adv-x="427" 
d="M23 597q0 138 139 138q44 0 74 -15h195v-98h-130v-181h126v-95h-126v-247h130v-99h-195q-43 -17 -79 -17q-134 0 -134 139v475zM131 606v-488q0 -44 31 -44t31 44v488q0 43 -31 43t-31 -43z" />
    <glyph glyph-name="oe" unicode="&#x153;" horiz-adv-x="417" 
d="M117 484v-391q0 -33 22 -33t22 33v391q0 32 -22 32t-22 -32zM302 343v141q0 32 -22 32t-22 -32v-141h44zM209 564q31 22 71 22q119 0 119 -112v-200h-141v-181q0 -33 22 -33t22 33v135h97v-126q0 -111 -119 -111q-43 0 -71 23q-34 -24 -76 -24q-113 0 -113 112v372
q0 112 119 112q41 0 70 -22z" />
    <glyph glyph-name="Scedilla" unicode="&#x15e;" horiz-adv-x="656" 
d="M15 597q0 138 138 138q139 0 139 -138v-143h-107v152q0 43 -32 43q-31 0 -31 -43v-52q0 -50 14 -69l117 -160q39 -53 39 -108v-95q0 -138 -139 -138q-138 0 -138 138v158h107v-162q0 -44 31 -44q32 0 32 44v75q0 30 -18 55l-122 170q-30 42 -30 101v78zM195 -130l58 97
h61l-33 -97h-86z" />
    <glyph glyph-name="scedilla" unicode="&#x15f;" horiz-adv-x="383" 
d="M161 484q0 32 -22 32t-22 -32v-32q0 -40 25 -71l68 -85q29 -37 34 -44q14 -28 14 -72v-78q0 -111 -119 -111t-119 111v126h97v-135q0 -33 22 -33t22 33v44q0 52 -21 78l-75 93q-45 56 -45 104v62q0 112 119 112t119 -112v-107h-97v117zM98 -130l58 97h61l-33 -97h-86z
" />
    <glyph glyph-name="Scaron" unicode="&#x160;" horiz-adv-x="305" 
d="M15 597q0 138 138 138q139 0 139 -138v-143h-107v152q0 43 -32 43q-31 0 -31 -43v-52q0 -50 14 -69l117 -160q39 -53 39 -108v-95q0 -138 -139 -138q-138 0 -138 138v158h107v-162q0 -44 31 -44q32 0 32 44v75q0 30 -18 55l-122 170q-30 42 -30 101v78zM121 869l32 -54
l32 54h59l-55 -109h-72l-55 109h59z" />
    <glyph glyph-name="scaron" unicode="&#x161;" 
d="M161 484q0 32 -22 32t-22 -32v-32q0 -40 25 -71l68 -85q29 -37 34 -44q14 -28 14 -72v-78q0 -111 -119 -111t-119 111v126h97v-135q0 -33 22 -33t22 33v44q0 52 -21 78l-75 93q-45 56 -45 104v62q0 112 119 112t119 -112v-107h-97v117zM107 720l32 -54l32 54h59l-55 -109
h-72l-55 109h59z" />
    <glyph glyph-name="ch903" unicode="&#x168;" horiz-adv-x="329" 
d="M25 122v598h108v-602q0 -44 31 -44q32 0 32 44v602h107v-598q0 -138 -139 -138t-139 138zM285 830q-55 -87 -112 -80q-14 2 -28.5 20t-21.5 18q-18 4 -35 -25q-2 -2 -4 -6l-38 -1q1 2 4 7q52 79 109 72q15 -2 28.5 -19t20.5 -18q11 -2 23 9t16 23h38z" />
    <glyph glyph-name="ch904" unicode="&#x169;" 
d="M257 576v-576h-94v44h-2q-21 -51 -71 -51q-43 0 -58 31q-10 22 -10 70v482h96v-470q0 -32 22 -32t22 32v470h95zM261 680q-55 -87 -112 -80q-14 2 -28.5 20t-21.5 18q-18 4 -35 -25q-2 -2 -4 -6l-38 -1q1 2 4 7q52 79 109 72q15 -2 28.5 -19t20.5 -18q11 -2 23 9t16 23
h38z" />
    <glyph glyph-name="Ydieresis" unicode="&#x178;" horiz-adv-x="290" 
d="M90 0v270l-106 450h106l39 -158q15 -61 18 -156h4q5 82 21 153l37 161h101l-110 -450v-270h-110zM167 765v98h66v-98h-66zM57 765v98h66v-98h-66z" />
    <glyph glyph-name="Zcaron" unicode="&#x17d;" horiz-adv-x="239" 
d="M1 0v84l126 543h-123v93h238v-85l-125 -542h125v-93h-241zM88 869l32 -54l32 54h59l-55 -109h-72l-55 109h59z" />
    <glyph glyph-name="zcaron" unicode="&#x17e;" horiz-adv-x="233" 
d="M8 0v78l108 424h-108v74h209v-79l-106 -416h113v-81h-216zM85 720l32 -54l32 54h59l-55 -109h-72l-55 109h59z" />
    <glyph glyph-name="florin" unicode="&#x192;" horiz-adv-x="329" 
d="M308 647h-35q-40 0 -50 -16t-10 -68v-121h95v-66h-95v-317q0 -101 -35.5 -138.5t-129.5 -37.5h-14q-9 1 -14 1v89h35q36 0 47 12t11 58v333h-90v66h90v120q0 93 31.5 133t112.5 40q31 0 51 -1v-87z" />
    <glyph glyph-name="glyph277" unicode="&#x1a0;" horiz-adv-x="329" 
d="M133 606v-488q0 -44 31 -44q32 0 32 44v488q0 43 -32 43q-31 0 -31 -43zM262 705l10 15q-21 11 -21 33q0 31 31 38q8 2 16 0l24 -10l7 -33q0 -2 -3 -10l-48 -49h-1q26 -35 26 -92v-475q0 -138 -139 -138t-139 138v475q0 138 139 138q64 0 98 -30z" />
    <glyph glyph-name="glyph278" unicode="&#x1a1;" 
d="M117 484v-391q0 -33 22 -33t22 33v391q0 32 -22 32t-22 -32zM237 548q21 -28 21 -74v-372q0 -111 -119 -111t-119 111v372q0 112 119 112q54 0 84 -24l9 14q-19 11 -19 31q0 27 28 33q8 2 14 0l22 -9l6 -30q0 -2 -3 -8z" />
    <glyph glyph-name="glyph279" unicode="&#x1af;" horiz-adv-x="329" 
d="M303 689v-567q0 -138 -139 -138t-139 138v598h108v-602q0 -44 31 -44q32 0 32 44v602h101q-21 11 -21 33q0 31 31 38q8 2 16 0l24 -10l7 -33q0 -2 -3 -10z" />
    <glyph glyph-name="glyph280" unicode="&#x1b0;" 
d="M257 548v-548h-94v44h-2q-21 -51 -71 -51q-43 0 -58 31q-10 22 -10 70v482h96v-470q0 -32 22 -32t22 32v470h90q-19 11 -19 31q0 27 28 33q8 2 14 0l22 -9l6 -30q0 -2 -3 -8z" />
    <glyph glyph-name="circumflex" unicode="&#x2c6;" horiz-adv-x="500" 
d="M218 611h-59l55 109h72l55 -109h-59l-32 54z" />
    <glyph glyph-name="caron" unicode="&#x2c7;" horiz-adv-x="500" 
d="M218 720l32 -54l32 54h59l-55 -109h-72l-55 109h59z" />
    <glyph glyph-name="breve" unicode="&#x2d8;" horiz-adv-x="500" 
d="M220 720v-7q0 -49 30 -49t30 46v10h47v-8q0 -103 -77 -103q-78 0 -78 104v7h48z" />
    <glyph glyph-name="dotaccent" unicode="&#x2d9;" horiz-adv-x="500" 
d="M216 615v101h68v-101h-68z" />
    <glyph glyph-name="ring" unicode="&#x2da;" horiz-adv-x="500" 
d="M173 687q0 32 22.5 54.5t54.5 22.5t54.5 -22.5t22.5 -54.5t-22.5 -55t-54.5 -23t-54.5 23t-22.5 55zM220 686q0 -29 30 -29t30 29q0 30 -30 30t-30 -30z" />
    <glyph glyph-name="ogonek" unicode="&#x2db;" horiz-adv-x="500" 
d="M297 0q-33 -47 -33 -79q0 -29 21 -51h-75q-11 22 -11 37q0 44 55 93h43z" />
    <glyph glyph-name="tilde" unicode="&#x2dc;" horiz-adv-x="500" 
d="M342 715q0 -95 -56 -95q-17 0 -39.5 15.5t-31.5 15.5q-18 0 -18 -29v-6h-39v7q0 87 57 87q16 0 38.5 -15t31.5 -15q19 0 19 27v4q-1 3 -1 4h39z" />
    <glyph glyph-name="hungarumlaut" unicode="&#x2dd;" horiz-adv-x="500" 
d="M220 611h-48l29 109h75zM323 611h-48l29 109h75z" />
    <glyph glyph-name="glyph281" unicode="&#x1ea0;" horiz-adv-x="328" 
d="M138 287h50l-11 179q-4 61 -11 146h-5q-2 -39 -10 -147zM0 0l86 720h163l78 -720h-109l-22 194h-67l-23 -194h-106zM122 -90v70h88v-70h-88z" />
    <glyph glyph-name="glyph282" unicode="&#x1ea1;" horiz-adv-x="276" 
d="M259 0h-95q-3 14 -3 32v12h-2q-26 -51 -72 -51q-43 0 -58 32q-9 20 -9 69v123q0 46 11.5 70.5t47.5 47.5q53 33 58 38q22 20 22 56v55q0 32 -22 32q-21 0 -21 -32v-117h-96v107q0 112 117 112q118 0 118 -112v-408q0 -35 4 -66zM115 220v-114q0 -32 22 -32t22 32v193
q-26 -17 -35 -33t-9 -46zM93 -110v70h88v-70h-88z" />
    <glyph glyph-name="glyph283" unicode="&#x1ea2;" horiz-adv-x="328" 
d="M138 287h50l-11 179q-4 61 -11 146h-5q-2 -39 -10 -147zM0 0l86 720h163l78 -720h-109l-22 194h-67l-23 -194h-106zM177 860v37q0 13 -9 13q-8 0 -8 -13v-48h-38v44q0 43 45 43q46 0 46 -43v-34q0 -21 -14.5 -47.5t-14.5 -36.5v-20h-36v25q0 15 14.5 41.5t14.5 38.5z" />
    <glyph glyph-name="glyph284" unicode="&#x1ea3;" horiz-adv-x="276" 
d="M259 0h-95q-3 14 -3 32v12h-2q-26 -51 -72 -51q-43 0 -58 32q-9 20 -9 69v123q0 46 11.5 70.5t47.5 47.5q53 33 58 38q22 20 22 56v55q0 32 -22 32q-21 0 -21 -32v-117h-96v107q0 112 117 112q118 0 118 -112v-408q0 -35 4 -66zM115 220v-114q0 -32 22 -32t22 32v193
q-26 -17 -35 -33t-9 -46zM148 726v37q0 13 -9 13q-8 0 -8 -13v-48h-38v44q0 43 45 43q46 0 46 -43v-34q0 -21 -14.5 -47.5t-14.5 -36.5v-20h-36v25q0 15 14.5 41.5t14.5 38.5z" />
    <glyph glyph-name="glyph285" unicode="&#x1ea4;" horiz-adv-x="328" 
d="M138 287h50l-11 179q-4 61 -11 146h-5q-2 -39 -10 -147zM0 0l86 720h163l78 -720h-109l-22 194h-67l-23 -194h-106zM114 730h-59l80 89h62l80 -89h-59l-52 34zM295 784h-38l65 109h91z" />
    <glyph glyph-name="glyph286" unicode="&#x1ea5;" horiz-adv-x="276" 
d="M259 0h-95q-3 14 -3 32v12h-2q-26 -51 -72 -51q-43 0 -58 32q-9 20 -9 69v123q0 46 11.5 70.5t47.5 47.5q53 33 58 38q22 20 22 56v55q0 32 -22 32q-21 0 -21 -32v-117h-96v107q0 112 117 112q118 0 118 -112v-408q0 -35 4 -66zM115 220v-114q0 -32 22 -32t22 32v193
q-26 -17 -35 -33t-9 -46zM85 596h-59l80 89h62l80 -89h-59l-52 34zM266 650h-38l65 109h91z" />
    <glyph glyph-name="glyph287" unicode="&#x1ea6;" horiz-adv-x="328" 
d="M138 287h50l-11 179q-4 61 -11 146h-5q-2 -39 -10 -147zM0 0l86 720h163l78 -720h-109l-22 194h-67l-23 -194h-106zM114 730h-59l80 89h62l80 -89h-59l-52 34zM75 784h-38l-118 109h91z" />
    <glyph glyph-name="glyph288" unicode="&#x1ea7;" horiz-adv-x="276" 
d="M259 0h-95q-3 14 -3 32v12h-2q-26 -51 -72 -51q-43 0 -58 32q-9 20 -9 69v123q0 46 11.5 70.5t47.5 47.5q53 33 58 38q22 20 22 56v55q0 32 -22 32q-21 0 -21 -32v-117h-96v107q0 112 117 112q118 0 118 -112v-408q0 -35 4 -66zM115 220v-114q0 -32 22 -32t22 32v193
q-26 -17 -35 -33t-9 -46zM85 596h-59l80 89h62l80 -89h-59l-52 34zM66 660h-38l-118 109h91z" />
    <glyph glyph-name="glyph289" unicode="&#x1ea8;" horiz-adv-x="328" 
d="M138 287h50l-11 179q-4 61 -11 146h-5q-2 -39 -10 -147zM0 0l86 720h163l78 -720h-109l-22 194h-67l-23 -194h-106zM114 730h-59l80 89h62l80 -89h-59l-52 34zM289 889v37q0 13 -9 13q-8 0 -8 -13v-48h-38v44q0 43 45 43q46 0 46 -43v-34q0 -21 -14.5 -47.5t-14.5 -36.5
v-20h-36v25q0 15 14.5 41.5t14.5 38.5z" />
    <glyph glyph-name="glyph290" unicode="&#x1ea9;" horiz-adv-x="276" 
d="M259 0h-95q-3 14 -3 32v12h-2q-26 -51 -72 -51q-43 0 -58 32q-9 20 -9 69v123q0 46 11.5 70.5t47.5 47.5q53 33 58 38q22 20 22 56v55q0 32 -22 32q-21 0 -21 -32v-117h-96v107q0 112 117 112q118 0 118 -112v-408q0 -35 4 -66zM115 220v-114q0 -32 22 -32t22 32v193
q-26 -17 -35 -33t-9 -46zM85 596h-59l80 89h62l80 -89h-59l-52 34zM260 755v37q0 13 -9 13q-8 0 -8 -13v-48h-38v44q0 43 45 43q46 0 46 -43v-34q0 -21 -14.5 -47.5t-14.5 -36.5v-20h-36v25q0 15 14.5 41.5t14.5 38.5z" />
    <glyph glyph-name="glyph291" unicode="&#x1eaa;" horiz-adv-x="328" 
d="M138 287h50l-11 179q-4 61 -11 146h-5q-2 -39 -10 -147zM0 0l86 720h163l78 -720h-109l-22 194h-67l-23 -194h-106zM114 730h-59l80 89h62l80 -89h-59l-52 34zM287 914q-55 -87 -112 -80q-14 2 -28.5 20t-21.5 18q-18 4 -35 -25q-2 -2 -4 -6l-38 -1q1 2 4 7q52 79 109 72
q15 -2 28.5 -19t20.5 -18q11 -2 23 9t16 23h38z" />
    <glyph glyph-name="glyph292" unicode="&#x1eab;" horiz-adv-x="276" 
d="M259 0h-95q-3 14 -3 32v12h-2q-26 -51 -72 -51q-43 0 -58 32q-9 20 -9 69v123q0 46 11.5 70.5t47.5 47.5q53 33 58 38q22 20 22 56v55q0 32 -22 32q-21 0 -21 -32v-117h-96v107q0 112 117 112q118 0 118 -112v-408q0 -35 4 -66zM115 220v-114q0 -32 22 -32t22 32v193
q-26 -17 -35 -33t-9 -46zM85 596h-59l80 89h62l80 -89h-59l-52 34zM258 780q-55 -87 -112 -80q-14 2 -28.5 20t-21.5 18q-18 4 -35 -25q-2 -2 -4 -6l-38 -1q1 2 4 7q52 79 109 72q15 -2 28.5 -19t20.5 -18q11 -2 23 9t16 23h38z" />
    <glyph glyph-name="glyph293" unicode="&#x1eac;" horiz-adv-x="328" 
d="M138 287h50l-11 179q-4 61 -11 146h-5q-2 -39 -10 -147zM0 0l86 720h163l78 -720h-109l-22 194h-67l-23 -194h-106zM114 730h-59l80 89h62l80 -89h-59l-52 34zM122 -90v70h88v-70h-88z" />
    <glyph glyph-name="glyph294" unicode="&#x1ead;" horiz-adv-x="276" 
d="M259 0h-95q-3 14 -3 32v12h-2q-26 -51 -72 -51q-43 0 -58 32q-9 20 -9 69v123q0 46 11.5 70.5t47.5 47.5q53 33 58 38q22 20 22 56v55q0 32 -22 32q-21 0 -21 -32v-117h-96v107q0 112 117 112q118 0 118 -112v-408q0 -35 4 -66zM115 220v-114q0 -32 22 -32t22 32v193
q-26 -17 -35 -33t-9 -46zM85 596h-59l80 89h62l80 -89h-59l-52 34zM93 -110v70h88v-70h-88z" />
    <glyph glyph-name="glyph295" unicode="&#x1eae;" horiz-adv-x="328" 
d="M138 287h50l-11 179q-4 61 -11 146h-5q-2 -39 -10 -147zM0 0l86 720h163l78 -720h-109l-22 194h-67l-23 -194h-106zM124 831v-8q0 -46 42 -46t42 43v11l60 5v-8q0 -88 -102 -88q-103 0 -103 89v7zM185 836h-38l65 109h91z" />
    <glyph glyph-name="glyph296" unicode="&#x1eaf;" horiz-adv-x="276" 
d="M259 0h-95q-3 14 -3 32v12h-2q-26 -51 -72 -51q-43 0 -58 32q-9 20 -9 69v123q0 46 11.5 70.5t47.5 47.5q53 33 58 38q22 20 22 56v55q0 32 -22 32q-21 0 -21 -32v-117h-96v107q0 112 117 112q118 0 118 -112v-408q0 -35 4 -66zM115 220v-114q0 -32 22 -32t22 32v193
q-26 -17 -35 -33t-9 -46zM96 697v-8q0 -46 42 -46t42 43v11l60 5v-8q0 -88 -102 -88q-103 0 -103 89v7zM157 702h-38l65 109h91z" />
    <glyph glyph-name="glyph297" unicode="&#x1eb0;" horiz-adv-x="327" 
d="M138 287h50l-11 179q-4 61 -11 146h-5q-2 -39 -10 -147zM0 0l86 720h163l78 -720h-109l-22 194h-67l-23 -194h-106zM124 831v-8q0 -46 42 -46t42 43v11l60 5v-8q0 -88 -102 -88q-103 0 -103 89v7zM185 836h-38l-118 109h91z" />
    <glyph glyph-name="glyph298" unicode="&#x1eb1;" horiz-adv-x="276" 
d="M259 0h-95q-3 14 -3 32v12h-2q-26 -51 -72 -51q-43 0 -58 32q-9 20 -9 69v123q0 46 11.5 70.5t47.5 47.5q53 33 58 38q22 20 22 56v55q0 32 -22 32q-21 0 -21 -32v-117h-96v107q0 112 117 112q118 0 118 -112v-408q0 -35 4 -66zM115 220v-114q0 -32 22 -32t22 32v193
q-26 -17 -35 -33t-9 -46zM96 697v-8q0 -46 42 -46t42 43v11l60 5v-8q0 -88 -102 -88q-103 0 -103 89v7zM157 702h-38l-118 109h91z" />
    <glyph glyph-name="glyph299" unicode="&#x1eb2;" horiz-adv-x="328" 
d="M138 287h50l-11 179q-4 61 -11 146h-5q-2 -39 -10 -147zM0 0l86 720h163l78 -720h-109l-22 194h-67l-23 -194h-106zM124 831v-8q0 -46 42 -46t42 43v11l60 5v-8q0 -88 -102 -88q-103 0 -103 89v7zM177 936v37q0 13 -9 13q-8 0 -8 -13v-48h-38v44q0 43 45 43q46 0 46 -43
v-34q0 -21 -14.5 -47.5t-14.5 -36.5v-20h-36v25q0 15 14.5 41.5t14.5 38.5z" />
    <glyph glyph-name="glyph300" unicode="&#x1eb3;" horiz-adv-x="276" 
d="M259 0h-95q-3 14 -3 32v12h-2q-26 -51 -72 -51q-43 0 -58 32q-9 20 -9 69v123q0 46 11.5 70.5t47.5 47.5q53 33 58 38q22 20 22 56v55q0 32 -22 32q-21 0 -21 -32v-117h-96v107q0 112 117 112q118 0 118 -112v-408q0 -35 4 -66zM115 220v-114q0 -32 22 -32t22 32v193
q-26 -17 -35 -33t-9 -46zM96 697v-8q0 -46 42 -46t42 43v11l60 5v-8q0 -88 -102 -88q-103 0 -103 89v7zM149 802v37q0 13 -9 13q-8 0 -8 -13v-48h-38v44q0 43 45 43q46 0 46 -43v-34q0 -21 -14.5 -47.5t-14.5 -36.5v-20h-36v25q0 15 14.5 41.5t14.5 38.5z" />
    <glyph glyph-name="glyph301" unicode="&#x1eb4;" horiz-adv-x="328" 
d="M138 287h50l-11 179q-4 61 -11 146h-5q-2 -39 -10 -147zM0 0l86 720h163l78 -720h-109l-22 194h-67l-23 -194h-106zM124 831v-8q0 -46 42 -46t42 43v11l60 5v-8q0 -88 -102 -88q-103 0 -103 89v7zM387 926q-55 -87 -112 -80q-14 2 -28.5 20t-21.5 18q-18 4 -35 -25
q-2 -2 -4 -6l-38 -1q1 2 4 7q52 79 109 72q15 -2 28.5 -19t20.5 -18q11 -2 23 9t16 23h38z" />
    <glyph glyph-name="glyph302" unicode="&#x1eb5;" horiz-adv-x="276" 
d="M259 0h-95q-3 14 -3 32v12h-2q-26 -51 -72 -51q-43 0 -58 32q-9 20 -9 69v123q0 46 11.5 70.5t47.5 47.5q53 33 58 38q22 20 22 56v55q0 32 -22 32q-21 0 -21 -32v-117h-96v107q0 112 117 112q118 0 118 -112v-408q0 -35 4 -66zM115 220v-114q0 -32 22 -32t22 32v193
q-26 -17 -35 -33t-9 -46zM95 697v-8q0 -46 42 -46t42 43v11l60 5v-8q0 -88 -102 -88q-103 0 -103 89v7zM358 792q-55 -87 -112 -80q-14 2 -28.5 20t-21.5 18q-18 4 -35 -25q-2 -2 -4 -6l-38 -1q1 2 4 7q52 79 109 72q15 -2 28.5 -19t20.5 -18q11 -2 23 9t16 23h38z" />
    <glyph glyph-name="glyph303" unicode="&#x1eb6;" horiz-adv-x="328" 
d="M138 287h50l-11 179q-4 61 -11 146h-5q-2 -39 -10 -147zM0 0l86 720h163l78 -720h-109l-22 194h-67l-23 -194h-106zM124 831v-8q0 -46 42 -46t42 43v11l60 5v-8q0 -88 -102 -88q-103 0 -103 89v7zM122 -90v70h88v-70h-88z" />
    <glyph glyph-name="glyph304" unicode="&#x1eb7;" horiz-adv-x="276" 
d="M259 0h-95q-3 14 -3 32v12h-2q-26 -51 -72 -51q-43 0 -58 32q-9 20 -9 69v123q0 46 11.5 70.5t47.5 47.5q53 33 58 38q22 20 22 56v55q0 32 -22 32q-21 0 -21 -32v-117h-96v107q0 112 117 112q118 0 118 -112v-408q0 -35 4 -66zM115 220v-114q0 -32 22 -32t22 32v193
q-26 -17 -35 -33t-9 -46zM93 -110v70h88v-70h-88zM96 697v-8q0 -46 42 -46t42 43v11l60 5v-8q0 -88 -102 -88q-103 0 -103 89v7z" />
    <glyph glyph-name="glyph305" unicode="&#x1eb8;" horiz-adv-x="273" 
d="M28 0v720h237v-98h-130v-181h127v-95h-127v-247h130v-99h-237zM103 -110v70h88v-70h-88z" />
    <glyph glyph-name="glyph306" unicode="&#x1eb9;" 
d="M161 343v141q0 32 -22 32t-22 -32v-141h44zM117 93q0 -33 22 -33t22 33v135h97v-126q0 -111 -119 -111t-119 111v372q0 112 119 112t119 -112v-200h-141v-181zM95 -120v70h88v-70h-88z" />
    <glyph glyph-name="glyph307" unicode="&#x1eba;" horiz-adv-x="273" 
d="M28 0v720h237v-98h-130v-181h127v-95h-127v-247h130v-99h-237zM158 860v37q0 13 -9 13q-8 0 -8 -13v-48h-38v44q0 43 45 43q46 0 46 -43v-34q0 -21 -14.5 -47.5t-14.5 -36.5v-20h-36v25q0 15 14.5 41.5t14.5 38.5z" />
    <glyph glyph-name="glyph308" unicode="&#x1ebb;" 
d="M161 343v141q0 32 -22 32t-22 -32v-141h44zM117 93q0 -33 22 -33t22 33v135h97v-126q0 -111 -119 -111t-119 111v372q0 112 119 112t119 -112v-200h-141v-181zM150 726v37q0 13 -9 13q-8 0 -8 -13v-48h-38v44q0 43 45 43q46 0 46 -43v-34q0 -21 -14.5 -47.5t-14.5 -36.5
v-20h-36v25q0 15 14.5 41.5t14.5 38.5z" />
    <glyph glyph-name="glyph309" unicode="&#x1ebc;" horiz-adv-x="273" 
d="M28 0v720h237v-98h-130v-181h127v-95h-127v-247h130v-99h-237zM268 834q-55 -87 -112 -80q-14 2 -28.5 20t-21.5 18q-18 4 -35 -25q-2 -2 -4 -6l-38 -1q1 2 4 7q52 79 109 72q15 -2 28.5 -19t20.5 -18q11 -2 23 9t16 23h38z" />
    <glyph glyph-name="glyph310" unicode="&#x1ebd;" 
d="M161 343v141q0 32 -22 32t-22 -32v-141h44zM117 93q0 -33 22 -33t22 33v135h97v-126q0 -111 -119 -111t-119 111v372q0 112 119 112t119 -112v-200h-141v-181zM260 700q-55 -87 -112 -80q-14 2 -28.5 20t-21.5 18q-18 4 -35 -25q-2 -2 -4 -6l-38 -1q1 2 4 7q52 79 109 72
q15 -2 28.5 -19t20.5 -18q11 -2 23 9t16 23h38z" />
    <glyph glyph-name="glyph311" unicode="&#x1ebe;" horiz-adv-x="273" 
d="M28 0v720h237v-98h-130v-181h127v-95h-127v-247h130v-99h-237zM95 735h-59l80 89h62l80 -89h-59l-52 34zM276 789h-38l65 109h91z" />
    <glyph glyph-name="glyph312" unicode="&#x1ebf;" 
d="M161 343v141q0 32 -22 32t-22 -32v-141h44zM117 93q0 -33 22 -33t22 33v135h97v-126q0 -111 -119 -111t-119 111v372q0 112 119 112t119 -112v-200h-141v-181zM87 596h-59l80 89h62l80 -89h-59l-52 34zM268 650h-38l65 109h91z" />
    <glyph glyph-name="glyph313" unicode="&#x1ec0;" horiz-adv-x="273" 
d="M28 0v720h237v-98h-130v-181h127v-95h-127v-247h130v-99h-237zM95 735h-59l80 89h62l80 -89h-59l-52 34zM56 789h-38l-118 109h91z" />
    <glyph glyph-name="glyph314" unicode="&#x1ec1;" 
d="M161 343v141q0 32 -22 32t-22 -32v-141h44zM117 93q0 -33 22 -33t22 33v135h97v-126q0 -111 -119 -111t-119 111v372q0 112 119 112t119 -112v-200h-141v-181zM87 596h-59l80 89h62l80 -89h-59l-52 34zM68 660h-38l-118 109h91z" />
    <glyph glyph-name="glyph315" unicode="&#x1ec2;" horiz-adv-x="273" 
d="M28 0v720h237v-98h-130v-181h127v-95h-127v-247h130v-99h-237zM94 735h-59l80 89h62l80 -89h-59l-52 34zM269 894v37q0 13 -9 13q-8 0 -8 -13v-48h-38v44q0 43 45 43q46 0 46 -43v-34q0 -21 -14.5 -47.5t-14.5 -36.5v-20h-36v25q0 15 14.5 41.5t14.5 38.5z" />
    <glyph glyph-name="glyph316" unicode="&#x1ec3;" 
d="M161 343v141q0 32 -22 32t-22 -32v-141h44zM117 93q0 -33 22 -33t22 33v135h97v-126q0 -111 -119 -111t-119 111v372q0 112 119 112t119 -112v-200h-141v-181zM87 596h-59l80 89h62l80 -89h-59l-52 34zM262 755v37q0 13 -9 13q-8 0 -8 -13v-48h-38v44q0 43 45 43
q46 0 46 -43v-34q0 -21 -14.5 -47.5t-14.5 -36.5v-20h-36v25q0 15 14.5 41.5t14.5 38.5z" />
    <glyph glyph-name="glyph317" unicode="&#x1ec4;" horiz-adv-x="273" 
d="M28 0v720h237v-98h-130v-181h127v-95h-127v-247h130v-99h-237zM95 735h-59l80 89h62l80 -89h-59l-52 34zM268 919q-55 -87 -112 -80q-14 2 -28.5 20t-21.5 18q-18 4 -35 -25q-2 -2 -4 -6l-38 -1q1 2 4 7q52 79 109 72q15 -2 28.5 -19t20.5 -18q11 -2 23 9t16 23h38z" />
    <glyph glyph-name="glyph318" unicode="&#x1ec5;" 
d="M161 343v141q0 32 -22 32t-22 -32v-141h44zM117 93q0 -33 22 -33t22 33v135h97v-126q0 -111 -119 -111t-119 111v372q0 112 119 112t119 -112v-200h-141v-181zM87 596h-59l80 89h62l80 -89h-59l-52 34zM260 780q-55 -87 -112 -80q-14 2 -28.5 20t-21.5 18q-18 4 -35 -25
q-2 -2 -4 -6l-38 -1q1 2 4 7q52 79 109 72q15 -2 28.5 -19t20.5 -18q11 -2 23 9t16 23h38z" />
    <glyph glyph-name="glyph319" unicode="&#x1ec6;" horiz-adv-x="273" 
d="M28 0v720h237v-98h-130v-181h127v-95h-127v-247h130v-99h-237zM95 735h-59l80 89h62l80 -89h-59l-52 34zM103 -110v70h88v-70h-88z" />
    <glyph glyph-name="glyph320" unicode="&#x1ec7;" 
d="M161 343v141q0 32 -22 32t-22 -32v-141h44zM117 93q0 -33 22 -33t22 33v135h97v-126q0 -111 -119 -111t-119 111v372q0 112 119 112t119 -112v-200h-141v-181zM87 596h-59l80 89h62l80 -89h-59l-52 34zM95 -120v70h88v-70h-88z" />
    <glyph glyph-name="glyph321" unicode="&#x1ec8;" horiz-adv-x="163" 
d="M135 0h-107v720h107v-720zM93 860v37q0 13 -9 13q-8 0 -8 -13v-48h-38v44q0 43 45 43q46 0 46 -43v-34q0 -21 -14.5 -47.5t-14.5 -36.5v-20h-36v25q0 15 14.5 41.5t14.5 38.5z" />
    <glyph glyph-name="glyph322" unicode="&#x1ec9;" horiz-adv-x="140" 
d="M22 0v576h96v-576h-96zM81 716v37q0 13 -9 13q-8 0 -8 -13v-48h-38v44q0 43 45 43q46 0 46 -43v-34q0 -21 -14.5 -47.5t-14.5 -36.5v-20h-36v25q0 15 14.5 41.5t14.5 38.5z" />
    <glyph glyph-name="glyph323" unicode="&#x1eca;" horiz-adv-x="163" 
d="M135 0h-107v720h107v-720zM39 -112v70h88v-70h-88z" />
    <glyph glyph-name="glyph324" unicode="&#x1ecb;" horiz-adv-x="140" 
d="M22 0v576h96v-576h-96zM22 615v92h96v-92h-96zM25 -110v70h88v-70h-88z" />
    <glyph glyph-name="glyph325" unicode="&#x1ecc;" horiz-adv-x="329" 
d="M25 597q0 138 139 138t139 -138v-475q0 -138 -139 -138t-139 138v475zM133 606v-488q0 -44 31 -44q32 0 32 44v488q0 43 -32 43q-31 0 -31 -43zM120 -126v70h88v-70h-88z" />
    <glyph glyph-name="glyph326" unicode="&#x1ecd;" 
d="M20 474q0 112 119 112t119 -112v-372q0 -111 -119 -111t-119 111v372zM117 484v-391q0 -33 22 -33t22 33v391q0 32 -22 32t-22 -32zM95 -120v70h88v-70h-88z" />
    <glyph glyph-name="glyph327" unicode="&#x1ece;" horiz-adv-x="329" 
d="M25 597q0 138 139 138t139 -138v-475q0 -138 -139 -138t-139 138v475zM133 606v-488q0 -44 31 -44q32 0 32 44v488q0 43 -32 43q-31 0 -31 -43zM175 875v37q0 13 -9 13q-8 0 -8 -13v-48h-38v44q0 43 45 43q46 0 46 -43v-34q0 -21 -14.5 -47.5t-14.5 -36.5v-20h-36v25
q0 15 14.5 41.5t14.5 38.5z" />
    <glyph glyph-name="glyph328" unicode="&#x1ecf;" 
d="M20 474q0 112 119 112t119 -112v-372q0 -111 -119 -111t-119 111v372zM117 484v-391q0 -33 22 -33t22 33v391q0 32 -22 32t-22 -32zM150 726v37q0 13 -9 13q-8 0 -8 -13v-48h-38v44q0 43 45 43q46 0 46 -43v-34q0 -21 -14.5 -47.5t-14.5 -36.5v-20h-36v25q0 15 14.5 41.5
t14.5 38.5z" />
    <glyph glyph-name="glyph329" unicode="&#x1ed0;" horiz-adv-x="329" 
d="M25 597q0 138 139 138t139 -138v-475q0 -138 -139 -138t-139 138v475zM133 606v-488q0 -44 31 -44q32 0 32 44v488q0 43 -32 43q-31 0 -31 -43zM112 735h-59l80 89h62l80 -89h-59l-52 34zM293 789h-38l65 109h91z" />
    <glyph glyph-name="glyph330" unicode="&#x1ed1;" 
d="M20 474q0 112 119 112t119 -112v-372q0 -111 -119 -111t-119 111v372zM117 484v-391q0 -33 22 -33t22 33v391q0 32 -22 32t-22 -32zM87 596h-59l80 89h62l80 -89h-59l-52 34zM268 650h-38l65 109h91z" />
    <glyph glyph-name="glyph331" unicode="&#x1ed2;" horiz-adv-x="329" 
d="M25 597q0 138 139 138t139 -138v-475q0 -138 -139 -138t-139 138v475zM133 606v-488q0 -44 31 -44q32 0 32 44v488q0 43 -32 43q-31 0 -31 -43zM112 735h-59l80 89h62l80 -89h-59l-52 34zM73 789h-38l-118 109h91z" />
    <glyph glyph-name="glyph332" unicode="&#x1ed3;" 
d="M20 474q0 112 119 112t119 -112v-372q0 -111 -119 -111t-119 111v372zM117 484v-391q0 -33 22 -33t22 33v391q0 32 -22 32t-22 -32zM87 596h-59l80 89h62l80 -89h-59l-52 34zM68 660h-38l-118 109h91z" />
    <glyph glyph-name="glyph333" unicode="&#x1ed4;" horiz-adv-x="329" 
d="M25 597q0 138 139 138t139 -138v-475q0 -138 -139 -138t-139 138v475zM133 606v-488q0 -44 31 -44q32 0 32 44v488q0 43 -32 43q-31 0 -31 -43zM112 735h-59l80 89h62l80 -89h-59l-52 34zM287 894v37q0 13 -9 13q-8 0 -8 -13v-48h-38v44q0 43 45 43q46 0 46 -43v-34
q0 -21 -14.5 -47.5t-14.5 -36.5v-20h-36v25q0 15 14.5 41.5t14.5 38.5z" />
    <glyph glyph-name="glyph334" unicode="&#x1ed5;" 
d="M20 474q0 112 119 112t119 -112v-372q0 -111 -119 -111t-119 111v372zM117 484v-391q0 -33 22 -33t22 33v391q0 32 -22 32t-22 -32zM87 596h-59l80 89h62l80 -89h-59l-52 34zM262 755v37q0 13 -9 13q-8 0 -8 -13v-48h-38v44q0 43 45 43q46 0 46 -43v-34
q0 -21 -14.5 -47.5t-14.5 -36.5v-20h-36v25q0 15 14.5 41.5t14.5 38.5z" />
    <glyph glyph-name="glyph335" unicode="&#x1ed6;" horiz-adv-x="329" 
d="M25 597q0 138 139 138t139 -138v-475q0 -138 -139 -138t-139 138v475zM133 606v-488q0 -44 31 -44q32 0 32 44v488q0 43 -32 43q-31 0 -31 -43zM112 735h-59l80 89h62l80 -89h-59l-52 34zM285 919q-55 -87 -112 -80q-14 2 -28.5 20t-21.5 18q-18 4 -35 -25q-2 -2 -4 -6
l-38 -1q1 2 4 7q52 79 109 72q15 -2 28.5 -19t20.5 -18q11 -2 23 9t16 23h38z" />
    <glyph glyph-name="glyph336" unicode="&#x1ed7;" 
d="M20 474q0 112 119 112t119 -112v-372q0 -111 -119 -111t-119 111v372zM117 484v-391q0 -33 22 -33t22 33v391q0 32 -22 32t-22 -32zM87 596h-59l80 89h62l80 -89h-59l-52 34zM260 780q-55 -87 -112 -80q-14 2 -28.5 20t-21.5 18q-18 4 -35 -25q-2 -2 -4 -6l-38 -1
q1 2 4 7q52 79 109 72q15 -2 28.5 -19t20.5 -18q11 -2 23 9t16 23h38z" />
    <glyph glyph-name="glyph337" unicode="&#x1ed8;" horiz-adv-x="329" 
d="M25 597q0 138 139 138t139 -138v-475q0 -138 -139 -138t-139 138v475zM133 606v-488q0 -44 31 -44q32 0 32 44v488q0 43 -32 43q-31 0 -31 -43zM112 735h-59l80 89h62l80 -89h-59l-52 34zM120 -126v70h88v-70h-88z" />
    <glyph glyph-name="glyph338" unicode="&#x1ed9;" 
d="M20 474q0 112 119 112t119 -112v-372q0 -111 -119 -111t-119 111v372zM117 484v-391q0 -33 22 -33t22 33v391q0 32 -22 32t-22 -32zM87 596h-59l80 89h62l80 -89h-59l-52 34zM95 -120v70h88v-70h-88z" />
    <glyph glyph-name="glyph339" unicode="&#x1eda;" horiz-adv-x="329" 
d="M133 606v-488q0 -44 31 -44q32 0 32 44v488q0 43 -32 43q-31 0 -31 -43zM262 705l10 15q-21 11 -21 33q0 31 31 38q8 2 16 0l24 -10l7 -33q0 -2 -3 -10l-48 -49h-1q26 -35 26 -92v-475q0 -138 -139 -138t-139 138v475q0 138 139 138q64 0 98 -30zM183 775h-38l65 109h91z
" />
    <glyph glyph-name="glyph340" unicode="&#x1edb;" 
d="M117 484v-391q0 -33 22 -33t22 33v391q0 32 -22 32t-22 -32zM237 548q21 -28 21 -74v-372q0 -111 -119 -111t-119 111v372q0 112 119 112q54 0 84 -24l9 14q-19 11 -19 31q0 27 28 33q8 2 14 0l22 -9l6 -30q0 -2 -3 -8zM158 626h-38l65 109h91z" />
    <glyph glyph-name="glyph341" unicode="&#x1edc;" horiz-adv-x="329" 
d="M133 606v-488q0 -44 31 -44q32 0 32 44v488q0 43 -32 43q-31 0 -31 -43zM262 705l10 15q-21 11 -21 33q0 31 31 38q8 2 16 0l24 -10l7 -33q0 -2 -3 -10l-48 -49h-1q26 -35 26 -92v-475q0 -138 -139 -138t-139 138v475q0 138 139 138q64 0 98 -30zM183 775h-38l-118 109
h91z" />
    <glyph glyph-name="glyph342" unicode="&#x1edd;" 
d="M117 484v-391q0 -33 22 -33t22 33v391q0 32 -22 32t-22 -32zM237 548q21 -28 21 -74v-372q0 -111 -119 -111t-119 111v372q0 112 119 112q54 0 84 -24l9 14q-19 11 -19 31q0 27 28 33q8 2 14 0l22 -9l6 -30q0 -2 -3 -8zM158 626h-38l-118 109h91z" />
    <glyph glyph-name="glyph343" unicode="&#x1ede;" horiz-adv-x="329" 
d="M133 606v-488q0 -44 31 -44q32 0 32 44v488q0 43 -32 43q-31 0 -31 -43zM262 705l10 15q-21 11 -21 33q0 31 31 38q8 2 16 0l24 -10l7 -33q0 -2 -3 -10l-48 -49h-1q26 -35 26 -92v-475q0 -138 -139 -138t-139 138v475q0 138 139 138q64 0 98 -30zM175 875v37q0 13 -9 13
q-8 0 -8 -13v-48h-38v44q0 43 45 43q46 0 46 -43v-34q0 -21 -14.5 -47.5t-14.5 -36.5v-20h-36v25q0 15 14.5 41.5t14.5 38.5z" />
    <glyph glyph-name="glyph344" unicode="&#x1edf;" 
d="M117 484v-391q0 -33 22 -33t22 33v391q0 32 -22 32t-22 -32zM237 548q21 -28 21 -74v-372q0 -111 -119 -111t-119 111v372q0 112 119 112q54 0 84 -24l9 14q-19 11 -19 31q0 27 28 33q8 2 14 0l22 -9l6 -30q0 -2 -3 -8zM150 726v37q0 13 -9 13q-8 0 -8 -13v-48h-38v44
q0 43 45 43q46 0 46 -43v-34q0 -21 -14.5 -47.5t-14.5 -36.5v-20h-36v25q0 15 14.5 41.5t14.5 38.5z" />
    <glyph glyph-name="glyph345" unicode="&#x1ee0;" horiz-adv-x="329" 
d="M133 606v-488q0 -44 31 -44q32 0 32 44v488q0 43 -32 43q-31 0 -31 -43zM262 705l10 15q-21 11 -21 33q0 31 31 38q8 2 16 0l24 -10l7 -33q0 -2 -3 -10l-48 -49h-1q26 -35 26 -92v-475q0 -138 -139 -138t-139 138v475q0 138 139 138q64 0 98 -30zM285 850
q-55 -87 -112 -80q-14 2 -28.5 20t-21.5 18q-18 4 -35 -25q-2 -2 -4 -6l-38 -1q1 2 4 7q52 79 109 72q15 -2 28.5 -19t20.5 -18q11 -2 23 9t16 23h38z" />
    <glyph glyph-name="glyph346" unicode="&#x1ee1;" 
d="M117 484v-391q0 -33 22 -33t22 33v391q0 32 -22 32t-22 -32zM237 548q21 -28 21 -74v-372q0 -111 -119 -111t-119 111v372q0 112 119 112q54 0 84 -24l9 14q-19 11 -19 31q0 27 28 33q8 2 14 0l22 -9l6 -30q0 -2 -3 -8zM260 700q-55 -87 -112 -80q-14 2 -28.5 20
t-21.5 18q-18 4 -35 -25q-2 -2 -4 -6l-38 -1q1 2 4 7q52 79 109 72q15 -2 28.5 -19t20.5 -18q11 -2 23 9t16 23h38z" />
    <glyph glyph-name="glyph347" unicode="&#x1ee2;" horiz-adv-x="329" 
d="M133 606v-488q0 -44 31 -44q32 0 32 44v488q0 43 -32 43q-31 0 -31 -43zM262 705l10 15q-21 11 -21 33q0 31 31 38q8 2 16 0l24 -10l7 -33q0 -2 -3 -10l-48 -49h-1q26 -35 26 -92v-475q0 -138 -139 -138t-139 138v475q0 138 139 138q64 0 98 -30zM120 -126v70h88v-70h-88
z" />
    <glyph glyph-name="glyph348" unicode="&#x1ee3;" 
d="M117 484v-391q0 -33 22 -33t22 33v391q0 32 -22 32t-22 -32zM237 548q21 -28 21 -74v-372q0 -111 -119 -111t-119 111v372q0 112 119 112q54 0 84 -24l9 14q-19 11 -19 31q0 27 28 33q8 2 14 0l22 -9l6 -30q0 -2 -3 -8zM95 -120v70h88v-70h-88z" />
    <glyph glyph-name="glyph349" unicode="&#x1ee4;" horiz-adv-x="329" 
d="M25 122v598h108v-602q0 -44 31 -44q32 0 32 44v602h107v-598q0 -138 -139 -138t-139 138zM120 -126v70h88v-70h-88z" />
    <glyph glyph-name="glyph350" unicode="&#x1ee5;" 
d="M257 576v-576h-94v44h-2q-21 -51 -71 -51q-43 0 -58 31q-10 22 -10 70v482h96v-470q0 -32 22 -32t22 32v470h95zM95 -110v70h88v-70h-88z" />
    <glyph glyph-name="glyph351" unicode="&#x1ee6;" horiz-adv-x="329" 
d="M25 122v598h108v-602q0 -44 31 -44q32 0 32 44v602h107v-598q0 -138 -139 -138t-139 138zM175 835v37q0 13 -9 13q-8 0 -8 -13v-48h-38v44q0 43 45 43q46 0 46 -43v-34q0 -21 -14.5 -47.5t-14.5 -36.5v-20h-36v25q0 15 14.5 41.5t14.5 38.5z" />
    <glyph glyph-name="glyph352" unicode="&#x1ee7;" 
d="M257 576v-576h-94v44h-2q-21 -51 -71 -51q-43 0 -58 31q-10 22 -10 70v482h96v-470q0 -32 22 -32t22 32v470h95zM151 696v37q0 13 -9 13q-8 0 -8 -13v-48h-38v44q0 43 45 43q46 0 46 -43v-34q0 -21 -14.5 -47.5t-14.5 -36.5v-20h-36v25q0 15 14.5 41.5t14.5 38.5z" />
    <glyph glyph-name="glyph353" unicode="&#x1ee8;" horiz-adv-x="329" 
d="M303 689v-567q0 -138 -139 -138t-139 138v598h108v-602q0 -44 31 -44q32 0 32 44v602h101q-21 11 -21 33q0 31 31 38q8 2 16 0l24 -10l7 -33q0 -2 -3 -10zM183 735h-38l65 109h91z" />
    <glyph glyph-name="glyph354" unicode="&#x1ee9;" 
d="M257 548v-548h-94v44h-2q-21 -51 -71 -51q-43 0 -58 31q-10 22 -10 70v482h96v-470q0 -32 22 -32t22 32v470h90q-19 11 -19 31q0 27 28 33q8 2 14 0l22 -9l6 -30q0 -2 -3 -8zM159 596h-38l65 109h91z" />
    <glyph glyph-name="glyph355" unicode="&#x1eea;" horiz-adv-x="329" 
d="M303 689v-567q0 -138 -139 -138t-139 138v598h108v-602q0 -44 31 -44q32 0 32 44v602h101q-21 11 -21 33q0 31 31 38q8 2 16 0l24 -10l7 -33q0 -2 -3 -10zM183 735h-38l-118 109h91z" />
    <glyph glyph-name="glyph356" unicode="&#x1eeb;" 
d="M257 548v-548h-94v44h-2q-21 -51 -71 -51q-43 0 -58 31q-10 22 -10 70v482h96v-470q0 -32 22 -32t22 32v470h90q-19 11 -19 31q0 27 28 33q8 2 14 0l22 -9l6 -30q0 -2 -3 -8zM158 596h-38l-118 109h91z" />
    <glyph glyph-name="glyph357" unicode="&#x1eec;" horiz-adv-x="329" 
d="M303 689v-567q0 -138 -139 -138t-139 138v598h108v-602q0 -44 31 -44q32 0 32 44v602h101q-21 11 -21 33q0 31 31 38q8 2 16 0l24 -10l7 -33q0 -2 -3 -10zM175 835v37q0 13 -9 13q-8 0 -8 -13v-48h-38v44q0 43 45 43q46 0 46 -43v-34q0 -21 -14.5 -47.5t-14.5 -36.5v-20
h-36v25q0 15 14.5 41.5t14.5 38.5z" />
    <glyph glyph-name="glyph358" unicode="&#x1eed;" 
d="M257 548v-548h-94v44h-2q-21 -51 -71 -51q-43 0 -58 31q-10 22 -10 70v482h96v-470q0 -32 22 -32t22 32v470h90q-19 11 -19 31q0 27 28 33q8 2 14 0l22 -9l6 -30q0 -2 -3 -8zM151 696v37q0 13 -9 13q-8 0 -8 -13v-48h-38v44q0 43 45 43q46 0 46 -43v-34
q0 -21 -14.5 -47.5t-14.5 -36.5v-20h-36v25q0 15 14.5 41.5t14.5 38.5z" />
    <glyph glyph-name="glyph359" unicode="&#x1eee;" horiz-adv-x="329" 
d="M303 689v-567q0 -138 -139 -138t-139 138v598h108v-602q0 -44 31 -44q32 0 32 44v602h101q-21 11 -21 33q0 31 31 38q8 2 16 0l24 -10l7 -33q0 -2 -3 -10zM285 830q-55 -87 -112 -80q-14 2 -28.5 20t-21.5 18q-18 4 -35 -25q-2 -2 -4 -6l-38 -1q1 2 4 7q52 79 109 72
q15 -2 28.5 -19t20.5 -18q11 -2 23 9t16 23h38z" />
    <glyph glyph-name="glyph360" unicode="&#x1eef;" 
d="M257 548v-548h-94v44h-2q-21 -51 -71 -51q-43 0 -58 31q-10 22 -10 70v482h96v-470q0 -32 22 -32t22 32v470h90q-19 11 -19 31q0 27 28 33q8 2 14 0l22 -9l6 -30q0 -2 -3 -8zM261 680q-55 -87 -112 -80q-14 2 -28.5 20t-21.5 18q-18 4 -35 -25q-2 -2 -4 -6l-38 -1
q1 2 4 7q52 79 109 72q15 -2 28.5 -19t20.5 -18q11 -2 23 9t16 23h38z" />
    <glyph glyph-name="glyph361" unicode="&#x1ef0;" horiz-adv-x="329" 
d="M303 689v-567q0 -138 -139 -138t-139 138v598h108v-602q0 -44 31 -44q32 0 32 44v602h101q-21 11 -21 33q0 31 31 38q8 2 16 0l24 -10l7 -33q0 -2 -3 -10zM120 -126v70h88v-70h-88z" />
    <glyph glyph-name="glyph362" unicode="&#x1ef1;" 
d="M257 548v-548h-94v44h-2q-21 -51 -71 -51q-43 0 -58 31q-10 22 -10 70v482h96v-470q0 -32 22 -32t22 32v470h90q-19 11 -19 31q0 27 28 33q8 2 14 0l22 -9l6 -30q0 -2 -3 -8zM95 -110v70h88v-70h-88z" />
    <glyph glyph-name="glyph363" unicode="&#x1ef2;" horiz-adv-x="290" 
d="M90 0v270l-106 450h106l39 -158q15 -61 18 -156h4q5 84 21 153l37 161h101l-110 -450v-270h-110zM169 720h-38l-118 109h91z" />
    <glyph glyph-name="glyph364" unicode="&#x1ef3;" horiz-adv-x="271" 
d="M18 -50h32q31 0 31 26q0 6 -1 13l-82 587h99l19 -177q18 -168 18 -279v-16h10q4 187 18 312l18 160h92l-80 -590q-11 -78 -34.5 -97t-103.5 -19h-36v80zM158 586h-38l-118 109h91z" />
    <glyph glyph-name="glyph365" unicode="&#x1ef4;" horiz-adv-x="290" 
d="M90 0v270l-106 450h106l39 -158q15 -61 18 -156h4q5 84 21 153l37 161h101l-110 -450v-270h-110zM101 -112v70h88v-70h-88z" />
    <glyph glyph-name="glyph366" unicode="&#x1ef5;" horiz-adv-x="271" 
d="M18 -50h32q31 0 31 26q0 6 -1 13l-82 587h99l19 -177q18 -168 18 -279v-16h10q4 187 18 312l18 160h92l-80 -590q-11 -78 -34.5 -97t-103.5 -19h-36v80zM208 -110v70h88v-70h-88z" />
    <glyph glyph-name="glyph367" unicode="&#x1ef6;" horiz-adv-x="290" 
d="M90 0v270l-106 450h106l39 -158q15 -61 18 -156h4q5 84 21 153l37 161h101l-110 -450v-270h-110zM160 821v37q0 13 -9 13q-8 0 -8 -13v-48h-38v44q0 43 45 43q46 0 46 -43v-34q0 -21 -14.5 -47.5t-14.5 -36.5v-20h-36v25q0 15 14.5 41.5t14.5 38.5z" />
    <glyph glyph-name="glyph368" unicode="&#x1ef7;" horiz-adv-x="271" 
d="M18 -50h32q31 0 31 26q0 6 -1 13l-82 587h99l19 -177q18 -168 18 -279v-16h10q4 187 18 312l18 160h92l-80 -590q-11 -78 -34.5 -97t-103.5 -19h-36v80zM151 686v37q0 13 -9 13q-8 0 -8 -13v-48h-38v44q0 43 45 43q46 0 46 -43v-34q0 -21 -14.5 -47.5t-14.5 -36.5v-20
h-36v25q0 15 14.5 41.5t14.5 38.5z" />
    <glyph glyph-name="glyph369" unicode="&#x1ef8;" horiz-adv-x="290" 
d="M90 0v270l-106 450h106l39 -158q15 -61 18 -156h4q5 84 21 153l37 161h101l-110 -450v-270h-110zM271 820q-55 -87 -112 -80q-14 2 -28.5 20t-21.5 18q-18 4 -35 -25q-2 -2 -4 -6l-38 -1q1 2 4 7q52 79 109 72q15 -2 28.5 -19t20.5 -18q11 -2 23 9t16 23h38z" />
    <glyph glyph-name="glyph370" unicode="&#x1ef9;" horiz-adv-x="271" 
d="M18 -50h32q31 0 31 26q0 6 -1 13l-82 587h99l19 -177q18 -168 18 -279v-16h10q4 187 18 312l18 160h92l-80 -590q-11 -78 -34.5 -97t-103.5 -19h-36v80zM260 670q-55 -87 -112 -80q-14 2 -28.5 20t-21.5 18q-18 4 -35 -25q-2 -2 -4 -6l-38 -1q1 2 4 7q52 79 109 72
q15 -2 28.5 -19t20.5 -18q11 -2 23 9t16 23h38z" />
    <glyph glyph-name="endash" unicode="&#x2013;" horiz-adv-x="500" 
d="M0 258v59h500v-59h-500z" />
    <glyph glyph-name="emdash" unicode="&#x2014;" horiz-adv-x="1000" 
d="M0 258v59h1000v-59h-1000z" />
    <glyph glyph-name="quoteleft" unicode="&#x2018;" horiz-adv-x="164" 
d="M17 720h95l35 -212h-66z" />
    <glyph glyph-name="quoteright" unicode="&#x2019;" horiz-adv-x="164" 
d="M156 720l-65 -212h-65l35 212h95z" />
    <glyph glyph-name="quotesinglbase" unicode="&#x201a;" horiz-adv-x="164" 
d="M147 114l-64 -212h-66l35 212h95z" />
    <glyph glyph-name="quotedblleft" unicode="&#x201c;" horiz-adv-x="290" 
d="M142 720h95l35 -212h-66zM17 720h95l35 -212h-66z" />
    <glyph glyph-name="quotedblright" unicode="&#x201d;" horiz-adv-x="290" 
d="M156 720l-64 -212h-65l35 212h94zM282 720l-64 -212h-66l35 212h95z" />
    <glyph glyph-name="quotedblbase" unicode="&#x201e;" horiz-adv-x="290" 
d="M147 114l-64 -212h-66l35 212h95zM272 114l-64 -212h-65l35 212h94z" />
    <glyph glyph-name="dagger" unicode="&#x2020;" horiz-adv-x="343" 
d="M213 720v-177h122v-72h-122v-496l-41 -48l-42 48v496h-123v72h123v177h83z" />
    <glyph glyph-name="daggerdbl" unicode="&#x2021;" horiz-adv-x="343" 
d="M129 -67v177h-122v72h122v97l42 47l42 -47v-97h122v-72h-122v-177h-84zM213 720v-177h122v-72h-122v-97l-41 -48l-42 48v97h-123v72h123v177h83z" />
    <glyph glyph-name="bullet" unicode="&#x2022;" horiz-adv-x="590" 
d="M150 372q0 60 42.5 102t102.5 42q59 0 101.5 -42t42.5 -102q0 -59 -42.5 -102t-102.5 -43t-102 42.5t-42 102.5z" />
    <glyph glyph-name="ellipsis" unicode="&#x2026;" horiz-adv-x="1000" 
d="M119 0v114h97v-114h-97zM452 0v114h97v-114h-97zM786 0v114h97v-114h-97z" />
    <glyph glyph-name="perthousand" unicode="&#x2030;" horiz-adv-x="809" 
d="M24 610q0 64 24.5 94.5t81.5 30.5t83 -32q23 -29 23 -93v-149q0 -64 -23 -93q-26 -32 -83 -32t-83 32q-23 29 -23 93v149zM154 435v201q0 34 -24 34t-24 -34v-201q0 -34 24 -34t24 34zM369 735h53l-242 -751h-52zM316 258q0 64 24 94t81 30q58 0 82 -30t24 -94v-149
q0 -64 -23 -93q-26 -32 -83 -32t-82 32q-23 29 -23 93v149zM444 82v202q0 33 -24 33t-24 -33v-202q0 -34 24 -34t24 34zM573 258q0 64 24 94t81 30q58 0 82 -30t24 -94v-149q0 -64 -23 -93q-26 -32 -83 -32t-82 32q-23 29 -23 93v149zM701 82v202q0 33 -24 33t-24 -33v-202
q0 -34 24 -34t24 34z" />
    <glyph glyph-name="guilsinglleft" unicode="&#x2039;" horiz-adv-x="189" 
d="M162 77l-135 143v138l135 142v-122l-83 -89l83 -87v-125z" />
    <glyph glyph-name="guilsinglright" unicode="&#x203a;" horiz-adv-x="189" 
d="M26 77v125l84 87l-84 89v122l136 -142v-138z" />
    <glyph glyph-name="fraction" unicode="&#x2044;" horiz-adv-x="167" 
d="M-154 -16l423 751h52l-423 -751h-52z" />
    <glyph glyph-name="franc" unicode="&#x20a3;" horiz-adv-x="1035" 
d="M28 0v720h237v-98h-130v-181h127v-95h-127v-346h-107zM674 0v576h94v-44h2q21 51 71 51q40 0 55 -26q13 -22 13 -75v-205h-95v193q0 33 -22 33t-22 -33v-470h-96z" />
    <glyph glyph-name="u20AB" unicode="&#x20ab;" horiz-adv-x="393" 
d="M197 501q-48 0 -84 -88q-20 -49 -20 -90q0 -51 39 -51q41 0 74 71q28 60 28 107q0 51 -37 51zM200 267q-53 -62 -106 -62q-45 0 -68 28t-23 74q0 80 55 153q59 78 136 78q34 0 61 -24l20 75h-100l10 36h100l2 16q0 31 -48 32l7 33q67 2 128 14l15 3q6 0 6 -9l-3 -12
l-19 -77h65l-10 -36h-65l-69 -280q-5 -20 -5 -27q0 -15 12 -15q6 0 49 42l20 -18q-70 -86 -117 -86q-43 0 -53 62zM9 160h221v-56h-221v56z" />
    <glyph glyph-name="trademark" unicode="&#x2122;" horiz-adv-x="833" 
d="M110 713h228v-46h-82v-219h-63v219h-83v46zM395 713h83l69 -176l65 176h83v-265h-56v209l-78 -209h-29l-81 209v-209h-56v265z" />
    <glyph glyph-name="minus" unicode="&#x2212;" horiz-adv-x="833" 
d="M124 340h585v-83h-585v83z" />
    <glyph glyph-name="SF370000" unicode="&#x255f;" horiz-adv-x="718" 
d="M138 287h50l-11 179q-4 64 -11 146h-5q-2 -37 -10 -147zM0 0l86 720h163l78 -720h-109l-22 194h-67l-23 -194h-106z" />
    <glyph glyph-name="SF420000" unicode="&#x2560;" horiz-adv-x="681" 
d="M28 0v720h237v-98h-130v-181h127v-95h-127v-247h130v-99h-237z" />
    <glyph glyph-name="SF190000" unicode="&#x2561;" horiz-adv-x="429" 
d="M135 0h-107v720h107v-720z" />
    <glyph glyph-name="SF200000" unicode="&#x2562;" horiz-adv-x="773" 
d="M25 597q0 138 139 138t139 -138v-475q0 -138 -139 -138t-139 138v475zM133 606v-488q0 -44 31 -44q32 0 32 44v488q0 43 -32 43q-31 0 -31 -43z" />
    <glyph glyph-name="SF230000" unicode="&#x2563;" horiz-adv-x="811" 
d="M25 122v598h108v-602q0 -44 31 -44q32 0 32 44v602h107v-598q0 -138 -139 -138t-139 138z" />
    <glyph glyph-name="SF470000" unicode="&#x2564;" horiz-adv-x="699" 
d="M90 0v270l-106 450h106l39 -158q15 -61 18 -156h4q5 82 21 153l37 161h101l-110 -450v-270h-110z" />
    <glyph glyph-name="SF480000" unicode="&#x2565;" horiz-adv-x="541" 
d="M259 0h-95q-3 14 -3 32v12h-2q-26 -51 -72 -51q-43 0 -58 32q-9 20 -9 69v123q0 45 10 68q13 27 49 50q53 33 58 38q22 20 22 56v55q0 32 -22 32q-21 0 -21 -32v-117h-96v107q0 112 117 112q118 0 118 -112v-408q0 -35 4 -66zM115 220v-114q0 -32 22 -32t22 32v193
q-26 -17 -35 -33t-9 -46z" />
    <glyph glyph-name="SF410000" unicode="&#x2566;" horiz-adv-x="431" 
d="M161 343v141q0 32 -22 32t-22 -32v-141h44zM117 93q0 -33 22 -33t22 33v135h97v-126q0 -111 -119 -111t-119 111v372q0 112 119 112t119 -112v-200h-141v-181z" />
    <glyph glyph-name="SF450000" unicode="&#x2567;" horiz-adv-x="314" 
d="M22 0v576h96v-576h-96zM22 618v102h96v-102h-96z" />
    <glyph glyph-name="SF460000" unicode="&#x2568;" horiz-adv-x="314" 
d="M22 0v576h96v-576h-96z" />
    <glyph glyph-name="SF400000" unicode="&#x2569;" horiz-adv-x="498" 
d="M20 474q0 112 119 112t119 -112v-372q0 -111 -119 -111t-119 111v372zM117 484v-391q0 -33 22 -33t22 33v391q0 32 -22 32t-22 -32z" />
    <glyph glyph-name="SF540000" unicode="&#x256a;" horiz-adv-x="557" 
d="M257 576v-576h-94v44h-2q-21 -51 -71 -51q-40 0 -55 26q-13 22 -13 75v482h96v-470q0 -32 22 -32t22 32v470h95z" />
    <glyph glyph-name="SF530000" unicode="&#x256b;" horiz-adv-x="497" 
d="M18 -50h32q31 0 31 26q0 6 -1 13l-82 587h99l19 -177q18 -168 18 -279v-16h10q4 188 18 312l18 160h92l-80 -590q-11 -78 -33 -97t-105 -19h-36v80z" />
    <glyph glyph-name="circle" unicode="&#x25cb;" horiz-adv-x="718" 
d="M446 843h-59l55 109h72l55 -109h-59l-32 54zM468 1031h-58l35 109h91z" />
    <glyph glyph-name="H18533" unicode="&#x25cf;" horiz-adv-x="718" 
d="M446 843h-59l55 109h72l55 -109h-59l-32 54zM544 1032l-68 109h91l35 -109h-58z" />
    <glyph glyph-name="invbullet" unicode="&#x25d8;" horiz-adv-x="718" 
d="M446 843h-59l55 109h72l55 -109h-59l-32 54zM614 903q9 29 11 64q1 11 8 13q3 0 8 1q67 11 67 54q0 35 -28 35q-5 0 -14 -1t-14 -1q-21 0 -21 18q0 28 32 28q46 0 76 -25.5t26 -70.5q-6 -59 -87 -81q-25 -7 -31 -34h-33z" />
    <glyph glyph-name="invcircle" unicode="&#x25d9;" horiz-adv-x="718" 
d="M446 843h-59l55 109h72l55 -109h-59l-32 54zM617 1135q0 -95 -56 -95q-17 0 -39.5 15.5t-31.5 15.5q-18 0 -18 -29v-6h-39v7q0 87 57 87q16 0 38.5 -15t31.5 -15q19 0 19 27v4q-1 3 -1 4h39z" />
    <glyph glyph-name="fi" unicode="&#xf001;" horiz-adv-x="292" 
d="M22 0v498h-27v78h27v44q0 53 9 71q15 29 64 29h52v-79h-5q-24 0 -24 -25v-40h29v-78h-29v-498h-96zM174 0v576h96v-576h-96zM174 618v102h96v-102h-96z" />
    <glyph glyph-name="fl" unicode="&#xf002;" horiz-adv-x="292" 
d="M22 0v498h-27v78h27v44q0 53 9 71q15 29 64 29h52v-79h-5q-24 0 -24 -25v-40h29v-78h-29v-498h-96zM174 0v720h96v-720h-96z" />
    <glyph glyph-name="periodcentered" horiz-adv-x="164" 
d="M82 418q24 0 41.5 -17.5t17.5 -41.5t-17.5 -41t-41.5 -17q-25 0 -41.5 17t-16.5 41q0 25 17 42t41 17z" />
    <glyph glyph-name="glyph231" 
 />
    <glyph glyph-name="glyph232" 
 />
    <glyph glyph-name="glyph275" horiz-adv-x="249" 
 />
    <glyph glyph-name="glyph276" horiz-adv-x="249" 
 />
    <glyph glyph-name="glyph261" horiz-adv-x="500" 
d="M253 522q9 29 11 64q1 11 8 13q3 0 8 1q67 11 67 54q0 35 -28 35q-5 0 -14 -1t-14 -1q-21 0 -21 18q0 28 32 28q46 0 76 -25.5t26 -70.5q-6 -59 -87 -81q-25 -7 -31 -34h-33z" />
    <glyph glyph-name="glyph262" horiz-adv-x="541" 
d="M243 611h-59l55 109h72l55 -109h-59l-32 54zM264 800h-58l35 109h91z" />
    <glyph glyph-name="glyph263" horiz-adv-x="541" 
d="M243 611h-59l55 109h72l55 -109h-59l-32 54zM341 800l-68 109h91l35 -109h-58z" />
    <glyph glyph-name="glyph264" horiz-adv-x="541" 
d="M243 611h-59l55 109h72l55 -109h-59l-32 54zM411 671q9 29 11 64q1 11 8 13q3 0 8 1q67 11 67 54q0 35 -28 35q-5 0 -14 -1t-14 -1q-21 0 -21 18q0 28 32 28q46 0 76 -25.5t26 -70.5q-6 -59 -87 -81q-25 -7 -31 -34h-33z" />
    <glyph glyph-name="glyph265" horiz-adv-x="541" 
d="M243 611h-59l55 109h72l55 -109h-59l-32 54zM414 903q0 -95 -56 -95q-17 0 -39.5 15.5t-31.5 15.5q-18 0 -18 -29v-6h-39v7q0 87 57 87q16 0 38.5 -15t31.5 -15q19 0 19 27v4q-1 3 -1 4h39z" />
    <glyph glyph-name="glyph266" horiz-adv-x="541" 
d="M250 719v-7q0 -49 30 -49t30 46v10h47v-8q0 -103 -77 -103q-78 0 -78 104v7h48zM343 800h-58l35 109h91z" />
    <glyph glyph-name="glyph267" horiz-adv-x="541" 
d="M250 719v-7q0 -49 30 -49t30 46v10h47v-8q0 -103 -77 -103q-78 0 -78 104v7h48zM288 800l-68 109h91l35 -109h-58z" />
    <glyph glyph-name="glyph268" horiz-adv-x="541" 
d="M250 719v-7q0 -49 30 -49t30 46v10h47v-8q0 -103 -77 -103q-78 0 -78 104v7h48zM306 671q9 29 11 64q1 11 8 13q3 0 8 1q67 11 67 54q0 35 -28 35q-5 0 -14 -1t-14 -1q-21 0 -21 18q0 28 32 28q46 0 76 -25.5t26 -70.5q-6 -59 -87 -81q-25 -7 -31 -34h-33z" />
    <glyph glyph-name="glyph269" horiz-adv-x="541" 
d="M250 719v-7q0 -49 30 -49t30 46v10h47v-8q0 -103 -77 -103q-78 0 -78 104v7h48zM414 903q0 -95 -56 -95q-17 0 -39.5 15.5t-31.5 15.5q-18 0 -18 -29v-6h-39v7q0 87 57 87q16 0 38.5 -15t31.5 -15q19 0 19 27v4q-1 3 -1 4h39z" />
    <glyph glyph-name="glyph270" horiz-adv-x="249" 
 />
  </font>
</defs>
</svg>
